<?xml version="1.0" encoding="UTF-8" standalone="no"?>
<svg
   width="463.53107pt"
   height="273.94153pt"
   viewBox="0 0 463.53107 273.94153"
   version="1.1"
   id="svg867"
   sodipodi:docname="ANN-7-5.svg"
   inkscape:version="1.2.2 (1:1.2.2+202305151914+b0a8486541)"
   inkscape:export-filename="/home/pantale/SynologyDrive/Recherche/ProductionScientifique/Publications/OnProgress/CIRP-2022/network.png"
   inkscape:export-xdpi="186"
   inkscape:export-ydpi="186"
   xmlns:inkscape="http://www.inkscape.org/namespaces/inkscape"
   xmlns:sodipodi="http://sodipodi.sourceforge.net/DTD/sodipodi-0.dtd"
   xmlns="http://www.w3.org/2000/svg"
   xmlns:svg="http://www.w3.org/2000/svg"
   xmlns:rdf="http://www.w3.org/1999/02/22-rdf-syntax-ns#"
   xmlns:cc="http://creativecommons.org/ns#"
   xmlns:dc="http://purl.org/dc/elements/1.1/">
  <sodipodi:namedview
     pagecolor="#ffffff"
     bordercolor="#666666"
     borderopacity="1"
     objecttolerance="10"
     gridtolerance="10"
     guidetolerance="10"
     inkscape:pageopacity="0"
     inkscape:pageshadow="2"
     inkscape:window-width="2560"
     inkscape:window-height="1374"
     id="namedview869"
     showgrid="false"
     fit-margin-top="0"
     fit-margin-left="0"
     fit-margin-right="0"
     fit-margin-bottom="0"
     inkscape:zoom="1.5403439"
     inkscape:cx="214.88708"
     inkscape:cy="180.47918"
     inkscape:window-x="0"
     inkscape:window-y="32"
     inkscape:window-maximized="1"
     inkscape:current-layer="axes_1"
     inkscape:showpageshadow="2"
     inkscape:pagecheckerboard="0"
     inkscape:deskcolor="#d1d1d1"
     inkscape:document-units="pt" />
  <metadata
     id="metadata2">
    <rdf:RDF>
      <cc:Work>
        <dc:type
           rdf:resource="http://purl.org/dc/dcmitype/StillImage" />
        <dc:date>2022-01-03T13:38:02.552768</dc:date>
        <dc:format>image/svg+xml</dc:format>
        <dc:creator>
          <cc:Agent>
            <dc:title>Matplotlib v3.5.0, https://matplotlib.org/</dc:title>
          </cc:Agent>
        </dc:creator>
      </cc:Work>
    </rdf:RDF>
  </metadata>
  <defs
     id="defs6"
     style="stroke-linecap:butt;stroke-linejoin:round">
    <style
       type="text/css"
       id="style4">*{stroke-linejoin: round; stroke-linecap: butt}</style>
  </defs>
  <g
     id="figure_1"
     transform="matrix(0.84998879,0,0,1,-93.070083,-178.56389)"
     style="stroke-linecap:butt;stroke-linejoin:round">
    <g
       id="axes_1"
       style="stroke-linecap:butt;stroke-linejoin:round"
       transform="translate(8.9479228,-25.352113)">
      <g
         id="line2d_11"
         style="stroke-linecap:butt;stroke-linejoin:round">
        <path
           d="M 145.8,330.048 294.6,214.08"
           clip-path="url(#pa0598f66fb)"
           style="fill:none;stroke:#0000ff;stroke-width:1.5;stroke-linecap:square;stroke-linejoin:round;stroke-opacity:0.5"
           id="path41"
           inkscape:connector-curvature="0" />
      </g>
      <g
         id="line2d_12"
         style="stroke-linecap:butt;stroke-linejoin:round">
        <path
           d="M 145.8,330.048 294.6,252.736"
           clip-path="url(#pa0598f66fb)"
           style="fill:none;stroke:#0000ff;stroke-width:1.5;stroke-linecap:square;stroke-linejoin:round;stroke-opacity:0.5"
           id="path44"
           inkscape:connector-curvature="0" />
      </g>
      <g
         id="line2d_13"
         style="stroke-linecap:butt;stroke-linejoin:round">
        <path
           d="M 145.8,330.048 294.6,291.392"
           clip-path="url(#pa0598f66fb)"
           style="fill:none;stroke:#0000ff;stroke-width:1.5;stroke-linecap:square;stroke-linejoin:round;stroke-opacity:0.5"
           id="path47"
           inkscape:connector-curvature="0" />
      </g>
      <g
         id="line2d_14"
         style="stroke-linecap:butt;stroke-linejoin:round">
        <path
           d="M 145.8,330.048 H 294.6"
           clip-path="url(#pa0598f66fb)"
           style="fill:none;stroke:#0000ff;stroke-width:1.5;stroke-linecap:square;stroke-linejoin:round;stroke-opacity:0.5"
           id="path50"
           inkscape:connector-curvature="0" />
      </g>
      <g
         id="line2d_15"
         style="stroke-linecap:butt;stroke-linejoin:round">
        <path
           d="m 145.8,330.048 148.8,38.656"
           clip-path="url(#pa0598f66fb)"
           style="fill:none;stroke:#0000ff;stroke-width:1.5;stroke-linecap:square;stroke-linejoin:round;stroke-opacity:0.5"
           id="path53"
           inkscape:connector-curvature="0" />
      </g>
      <g
         id="line2d_16"
         style="stroke-linecap:butt;stroke-linejoin:round">
        <path
           d="M 145.8,330.048 294.6,407.36"
           clip-path="url(#pa0598f66fb)"
           style="fill:none;stroke:#0000ff;stroke-width:1.5;stroke-linecap:square;stroke-linejoin:round;stroke-opacity:0.5"
           id="path56"
           inkscape:connector-curvature="0" />
      </g>
      <g
         id="line2d_17"
         style="stroke-linecap:butt;stroke-linejoin:round">
        <path
           d="M 145.8,330.048 294.6,446.016"
           clip-path="url(#pa0598f66fb)"
           style="fill:none;stroke:#0000ff;stroke-width:1.5;stroke-linecap:square;stroke-linejoin:round;stroke-opacity:0.5"
           id="path59"
           inkscape:connector-curvature="0" />
      </g>
      <g
         id="line2d_36"
         style="stroke-linecap:butt;stroke-linejoin:round">
        <path
           d="m 294.6,214.08 148.8,38.656"
           clip-path="url(#pa0598f66fb)"
           style="fill:none;stroke:#0000ff;stroke-width:1.5;stroke-linecap:square;stroke-linejoin:round;stroke-opacity:0.5"
           id="path116"
           inkscape:connector-curvature="0" />
      </g>
      <g
         id="line2d_37"
         style="stroke-linecap:butt;stroke-linejoin:round">
        <path
           d="m 294.6,214.08 148.8,77.312"
           clip-path="url(#pa0598f66fb)"
           style="fill:none;stroke:#0000ff;stroke-width:1.5;stroke-linecap:square;stroke-linejoin:round;stroke-opacity:0.5"
           id="path119"
           inkscape:connector-curvature="0" />
      </g>
      <g
         id="line2d_38"
         style="stroke-linecap:butt;stroke-linejoin:round">
        <path
           d="M 294.6,214.08 443.4,330.048"
           clip-path="url(#pa0598f66fb)"
           style="fill:none;stroke:#0000ff;stroke-width:1.5;stroke-linecap:square;stroke-linejoin:round;stroke-opacity:0.5"
           id="path122"
           inkscape:connector-curvature="0" />
      </g>
      <g
         id="line2d_39"
         style="stroke-linecap:butt;stroke-linejoin:round">
        <path
           d="M 294.6,214.08 443.4,368.704"
           clip-path="url(#pa0598f66fb)"
           style="fill:none;stroke:#0000ff;stroke-width:1.5;stroke-linecap:square;stroke-linejoin:round;stroke-opacity:0.5"
           id="path125"
           inkscape:connector-curvature="0" />
      </g>
      <g
         id="line2d_40"
         style="stroke-linecap:butt;stroke-linejoin:round">
        <path
           d="M 294.6,214.08 443.4,407.36"
           clip-path="url(#pa0598f66fb)"
           style="fill:none;stroke:#0000ff;stroke-width:1.5;stroke-linecap:square;stroke-linejoin:round;stroke-opacity:0.5"
           id="path128"
           inkscape:connector-curvature="0" />
      </g>
      <g
         id="line2d_43"
         style="stroke-linecap:butt;stroke-linejoin:round">
        <path
           d="M 294.6,252.736 H 443.4"
           clip-path="url(#pa0598f66fb)"
           style="fill:none;stroke:#0000ff;stroke-width:1.5;stroke-linecap:square;stroke-linejoin:round;stroke-opacity:0.5"
           id="path137"
           inkscape:connector-curvature="0" />
      </g>
      <g
         id="line2d_44"
         style="stroke-linecap:butt;stroke-linejoin:round">
        <path
           d="m 294.6,252.736 148.8,38.656"
           clip-path="url(#pa0598f66fb)"
           style="fill:none;stroke:#0000ff;stroke-width:1.5;stroke-linecap:square;stroke-linejoin:round;stroke-opacity:0.5"
           id="path140"
           inkscape:connector-curvature="0" />
      </g>
      <g
         id="line2d_45"
         style="stroke-linecap:butt;stroke-linejoin:round">
        <path
           d="m 294.6,252.736 148.8,77.312"
           clip-path="url(#pa0598f66fb)"
           style="fill:none;stroke:#0000ff;stroke-width:1.5;stroke-linecap:square;stroke-linejoin:round;stroke-opacity:0.5"
           id="path143"
           inkscape:connector-curvature="0" />
      </g>
      <g
         id="line2d_46"
         style="stroke-linecap:butt;stroke-linejoin:round">
        <path
           d="M 294.6,252.736 443.4,368.704"
           clip-path="url(#pa0598f66fb)"
           style="fill:none;stroke:#0000ff;stroke-width:1.5;stroke-linecap:square;stroke-linejoin:round;stroke-opacity:0.5"
           id="path146"
           inkscape:connector-curvature="0" />
      </g>
      <g
         id="line2d_47"
         style="stroke-linecap:butt;stroke-linejoin:round">
        <path
           d="M 294.6,252.736 443.4,407.36"
           clip-path="url(#pa0598f66fb)"
           style="fill:none;stroke:#0000ff;stroke-width:1.5;stroke-linecap:square;stroke-linejoin:round;stroke-opacity:0.5"
           id="path149"
           inkscape:connector-curvature="0" />
      </g>
      <g
         id="line2d_50"
         style="stroke-linecap:butt;stroke-linejoin:round">
        <path
           d="M 294.6,291.392 443.4,252.736"
           clip-path="url(#pa0598f66fb)"
           style="fill:none;stroke:#0000ff;stroke-width:1.5;stroke-linecap:square;stroke-linejoin:round;stroke-opacity:0.5"
           id="path158"
           inkscape:connector-curvature="0" />
      </g>
      <g
         id="line2d_51"
         style="stroke-linecap:butt;stroke-linejoin:round">
        <path
           d="M 294.6,291.392 H 443.4"
           clip-path="url(#pa0598f66fb)"
           style="fill:none;stroke:#0000ff;stroke-width:1.5;stroke-linecap:square;stroke-linejoin:round;stroke-opacity:0.5"
           id="path161"
           inkscape:connector-curvature="0" />
      </g>
      <g
         id="line2d_52"
         style="stroke-linecap:butt;stroke-linejoin:round">
        <path
           d="m 294.6,291.392 148.8,38.656"
           clip-path="url(#pa0598f66fb)"
           style="fill:none;stroke:#0000ff;stroke-width:1.5;stroke-linecap:square;stroke-linejoin:round;stroke-opacity:0.5"
           id="path164"
           inkscape:connector-curvature="0" />
      </g>
      <g
         id="line2d_53"
         style="stroke-linecap:butt;stroke-linejoin:round">
        <path
           d="m 294.6,291.392 148.8,77.312"
           clip-path="url(#pa0598f66fb)"
           style="fill:none;stroke:#0000ff;stroke-width:1.5;stroke-linecap:square;stroke-linejoin:round;stroke-opacity:0.5"
           id="path167"
           inkscape:connector-curvature="0" />
      </g>
      <g
         id="line2d_54"
         style="stroke-linecap:butt;stroke-linejoin:round">
        <path
           d="M 294.6,291.392 443.4,407.36"
           clip-path="url(#pa0598f66fb)"
           style="fill:none;stroke:#0000ff;stroke-width:1.5;stroke-linecap:square;stroke-linejoin:round;stroke-opacity:0.5"
           id="path170"
           inkscape:connector-curvature="0" />
      </g>
      <g
         id="line2d_57"
         style="stroke-linecap:butt;stroke-linejoin:round">
        <path
           d="M 294.6,330.048 443.4,252.736"
           clip-path="url(#pa0598f66fb)"
           style="fill:none;stroke:#0000ff;stroke-width:1.5;stroke-linecap:square;stroke-linejoin:round;stroke-opacity:0.5"
           id="path179"
           inkscape:connector-curvature="0" />
      </g>
      <g
         id="line2d_58"
         style="stroke-linecap:butt;stroke-linejoin:round">
        <path
           d="M 294.6,330.048 443.4,291.392"
           clip-path="url(#pa0598f66fb)"
           style="fill:none;stroke:#0000ff;stroke-width:1.5;stroke-linecap:square;stroke-linejoin:round;stroke-opacity:0.5"
           id="path182"
           inkscape:connector-curvature="0" />
      </g>
      <g
         id="line2d_59"
         style="stroke-linecap:butt;stroke-linejoin:round">
        <path
           d="M 294.6,330.048 H 443.4"
           clip-path="url(#pa0598f66fb)"
           style="fill:none;stroke:#0000ff;stroke-width:1.5;stroke-linecap:square;stroke-linejoin:round;stroke-opacity:0.5"
           id="path185"
           inkscape:connector-curvature="0" />
      </g>
      <g
         id="line2d_60"
         style="stroke-linecap:butt;stroke-linejoin:round">
        <path
           d="m 294.6,330.048 148.8,38.656"
           clip-path="url(#pa0598f66fb)"
           style="fill:none;stroke:#0000ff;stroke-width:1.5;stroke-linecap:square;stroke-linejoin:round;stroke-opacity:0.5"
           id="path188"
           inkscape:connector-curvature="0" />
      </g>
      <g
         id="line2d_61"
         style="stroke-linecap:butt;stroke-linejoin:round">
        <path
           d="M 294.6,330.048 443.4,407.36"
           clip-path="url(#pa0598f66fb)"
           style="fill:none;stroke:#0000ff;stroke-width:1.5;stroke-linecap:square;stroke-linejoin:round;stroke-opacity:0.5"
           id="path191"
           inkscape:connector-curvature="0" />
      </g>
      <g
         id="line2d_64"
         style="stroke-linecap:butt;stroke-linejoin:round">
        <path
           d="M 294.6,368.704 443.4,252.736"
           clip-path="url(#pa0598f66fb)"
           style="fill:none;stroke:#0000ff;stroke-width:1.5;stroke-linecap:square;stroke-linejoin:round;stroke-opacity:0.5"
           id="path200"
           inkscape:connector-curvature="0" />
      </g>
      <g
         id="line2d_65"
         style="stroke-linecap:butt;stroke-linejoin:round">
        <path
           d="M 294.6,368.704 443.4,291.392"
           clip-path="url(#pa0598f66fb)"
           style="fill:none;stroke:#0000ff;stroke-width:1.5;stroke-linecap:square;stroke-linejoin:round;stroke-opacity:0.5"
           id="path203"
           inkscape:connector-curvature="0" />
      </g>
      <g
         id="line2d_66"
         style="stroke-linecap:butt;stroke-linejoin:round">
        <path
           d="M 294.6,368.704 443.4,330.048"
           clip-path="url(#pa0598f66fb)"
           style="fill:none;stroke:#0000ff;stroke-width:1.5;stroke-linecap:square;stroke-linejoin:round;stroke-opacity:0.5"
           id="path206"
           inkscape:connector-curvature="0" />
      </g>
      <g
         id="line2d_67"
         style="stroke-linecap:butt;stroke-linejoin:round">
        <path
           d="M 294.6,368.704 H 443.4"
           clip-path="url(#pa0598f66fb)"
           style="fill:none;stroke:#0000ff;stroke-width:1.5;stroke-linecap:square;stroke-linejoin:round;stroke-opacity:0.5"
           id="path209"
           inkscape:connector-curvature="0" />
      </g>
      <g
         id="line2d_68"
         style="stroke-linecap:butt;stroke-linejoin:round">
        <path
           d="M 294.6,368.704 443.4,407.36"
           clip-path="url(#pa0598f66fb)"
           style="fill:none;stroke:#0000ff;stroke-width:1.5;stroke-linecap:square;stroke-linejoin:round;stroke-opacity:0.5"
           id="path212"
           inkscape:connector-curvature="0" />
      </g>
      <g
         id="line2d_71"
         style="stroke-linecap:butt;stroke-linejoin:round">
        <path
           d="M 294.6,407.36 443.4,252.736"
           clip-path="url(#pa0598f66fb)"
           style="fill:none;stroke:#0000ff;stroke-width:1.5;stroke-linecap:square;stroke-linejoin:round;stroke-opacity:0.5"
           id="path221"
           inkscape:connector-curvature="0" />
      </g>
      <g
         id="line2d_72"
         style="stroke-linecap:butt;stroke-linejoin:round">
        <path
           d="M 294.6,407.36 443.4,291.392"
           clip-path="url(#pa0598f66fb)"
           style="fill:none;stroke:#0000ff;stroke-width:1.5;stroke-linecap:square;stroke-linejoin:round;stroke-opacity:0.5"
           id="path224"
           inkscape:connector-curvature="0" />
      </g>
      <g
         id="line2d_73"
         style="stroke-linecap:butt;stroke-linejoin:round">
        <path
           d="M 294.6,407.36 443.4,330.048"
           clip-path="url(#pa0598f66fb)"
           style="fill:none;stroke:#0000ff;stroke-width:1.5;stroke-linecap:square;stroke-linejoin:round;stroke-opacity:0.5"
           id="path227"
           inkscape:connector-curvature="0" />
      </g>
      <g
         id="line2d_74"
         style="stroke-linecap:butt;stroke-linejoin:round">
        <path
           d="M 294.6,407.36 443.4,368.704"
           clip-path="url(#pa0598f66fb)"
           style="fill:none;stroke:#0000ff;stroke-width:1.5;stroke-linecap:square;stroke-linejoin:round;stroke-opacity:0.5"
           id="path230"
           inkscape:connector-curvature="0" />
      </g>
      <g
         id="line2d_75"
         style="stroke-linecap:butt;stroke-linejoin:round">
        <path
           d="M 294.6,407.36 H 443.4"
           clip-path="url(#pa0598f66fb)"
           style="fill:none;stroke:#0000ff;stroke-width:1.5;stroke-linecap:square;stroke-linejoin:round;stroke-opacity:0.5"
           id="path233"
           inkscape:connector-curvature="0" />
      </g>
      <g
         id="line2d_78"
         style="stroke-linecap:butt;stroke-linejoin:round">
        <path
           d="M 294.6,446.016 443.4,252.736"
           clip-path="url(#pa0598f66fb)"
           style="fill:none;stroke:#0000ff;stroke-width:1.5;stroke-linecap:square;stroke-linejoin:round;stroke-opacity:0.5"
           id="path242"
           inkscape:connector-curvature="0" />
      </g>
      <g
         id="line2d_79"
         style="stroke-linecap:butt;stroke-linejoin:round">
        <path
           d="M 294.6,446.016 443.4,291.392"
           clip-path="url(#pa0598f66fb)"
           style="fill:none;stroke:#0000ff;stroke-width:1.5;stroke-linecap:square;stroke-linejoin:round;stroke-opacity:0.5"
           id="path245"
           inkscape:connector-curvature="0" />
      </g>
      <g
         id="line2d_80"
         style="stroke-linecap:butt;stroke-linejoin:round">
        <path
           d="M 294.6,446.016 443.4,330.048"
           clip-path="url(#pa0598f66fb)"
           style="fill:none;stroke:#0000ff;stroke-width:1.5;stroke-linecap:square;stroke-linejoin:round;stroke-opacity:0.5"
           id="path248"
           inkscape:connector-curvature="0" />
      </g>
      <g
         id="line2d_81"
         style="stroke-linecap:butt;stroke-linejoin:round">
        <path
           d="M 294.6,446.016 443.4,368.704"
           clip-path="url(#pa0598f66fb)"
           style="fill:none;stroke:#0000ff;stroke-width:1.5;stroke-linecap:square;stroke-linejoin:round;stroke-opacity:0.5"
           id="path251"
           inkscape:connector-curvature="0" />
      </g>
      <g
         id="line2d_82"
         style="stroke-linecap:butt;stroke-linejoin:round">
        <path
           d="M 294.6,446.016 443.4,407.36"
           clip-path="url(#pa0598f66fb)"
           style="fill:none;stroke:#0000ff;stroke-width:1.5;stroke-linecap:square;stroke-linejoin:round;stroke-opacity:0.5"
           id="path254"
           inkscape:connector-curvature="0" />
      </g>
      <g
         id="line2d_92"
         style="stroke-linecap:butt;stroke-linejoin:round">
        <path
           d="m 443.4,252.736 148.8,77.312"
           clip-path="url(#pa0598f66fb)"
           style="fill:none;stroke:#0000ff;stroke-width:1.5;stroke-linecap:square;stroke-linejoin:round;stroke-opacity:0.5"
           id="path284"
           inkscape:connector-curvature="0" />
      </g>
      <g
         id="line2d_93"
         style="stroke-linecap:butt;stroke-linejoin:round">
        <path
           d="m 443.4,291.392 148.8,38.656"
           clip-path="url(#pa0598f66fb)"
           style="fill:none;stroke:#0000ff;stroke-width:1.5;stroke-linecap:square;stroke-linejoin:round;stroke-opacity:0.5"
           id="path287"
           inkscape:connector-curvature="0" />
      </g>
      <g
         id="line2d_94"
         style="stroke-linecap:butt;stroke-linejoin:round">
        <path
           d="M 443.4,330.048 H 592.2"
           clip-path="url(#pa0598f66fb)"
           style="fill:none;stroke:#0000ff;stroke-width:1.5;stroke-linecap:square;stroke-linejoin:round;stroke-opacity:0.5"
           id="path290"
           inkscape:connector-curvature="0" />
      </g>
      <g
         id="line2d_95"
         style="stroke-linecap:butt;stroke-linejoin:round">
        <path
           d="M 443.4,368.704 592.2,330.048"
           clip-path="url(#pa0598f66fb)"
           style="fill:none;stroke:#0000ff;stroke-width:1.5;stroke-linecap:square;stroke-linejoin:round;stroke-opacity:0.5"
           id="path293"
           inkscape:connector-curvature="0" />
      </g>
      <g
         id="line2d_96"
         style="stroke-linecap:butt;stroke-linejoin:round">
        <path
           d="M 443.4,407.36 592.2,330.048"
           clip-path="url(#pa0598f66fb)"
           style="fill:none;stroke:#0000ff;stroke-width:1.5;stroke-linecap:square;stroke-linejoin:round;stroke-opacity:0.5"
           id="path296"
           inkscape:connector-curvature="0" />
      </g>
      <g
         id="patch_3"
         style="stroke-linecap:butt;stroke-linejoin:round">
        <path
           d="m 145.8,339.712 c 3.28852,0 6.44279,-1.01826 8.76812,-2.83052 2.32534,-1.81226 3.63188,-4.27056 3.63188,-6.83348 0,-2.56292 -1.30654,-5.02122 -3.63188,-6.83348 -2.32533,-1.81226 -5.4796,-2.83052 -8.76812,-2.83052 -3.28852,0 -6.44279,1.01826 -8.76812,2.83052 -2.32534,1.81226 -3.63188,4.27056 -3.63188,6.83348 0,2.56292 1.30654,5.02122 3.63188,6.83348 2.32533,1.81226 5.4796,2.83052 8.76812,2.83052 z"
           clip-path="url(#pa0598f66fb)"
           style="fill:#32cd32;stroke:#000000;stroke-linecap:butt;stroke-linejoin:miter"
           id="path803"
           inkscape:connector-curvature="0" />
      </g>
      <g
         id="patch_6"
         style="stroke-linecap:butt;stroke-linejoin:round;fill:#808080">
        <path
           d="m 294.6,223.744 c 3.28852,0 6.44279,-1.01826 8.76812,-2.83052 C 305.69346,219.10122 307,216.64292 307,214.08 c 0,-2.56292 -1.30654,-5.02122 -3.63188,-6.83348 -2.32533,-1.81226 -5.4796,-2.83052 -8.76812,-2.83052 -3.28852,0 -6.44279,1.01826 -8.76812,2.83052 -2.32534,1.81226 -3.63188,4.27056 -3.63188,6.83348 0,2.56292 1.30654,5.02122 3.63188,6.83348 2.32533,1.81226 5.4796,2.83052 8.76812,2.83052 z"
           clip-path="url(#pa0598f66fb)"
           style="fill:#808080;stroke:#000000;stroke-linecap:butt;stroke-linejoin:miter"
           id="path812"
           inkscape:connector-curvature="0" />
      </g>
      <g
         id="patch_7"
         style="stroke-linecap:butt;stroke-linejoin:round;fill:#808080">
        <path
           d="m 294.6,262.4 c 3.28852,0 6.44279,-1.01826 8.76812,-2.83052 C 305.69346,257.75722 307,255.29892 307,252.736 c 0,-2.56292 -1.30654,-5.02122 -3.63188,-6.83348 -2.32533,-1.81226 -5.4796,-2.83052 -8.76812,-2.83052 -3.28852,0 -6.44279,1.01826 -8.76812,2.83052 -2.32534,1.81226 -3.63188,4.27056 -3.63188,6.83348 0,2.56292 1.30654,5.02122 3.63188,6.83348 2.32533,1.81226 5.4796,2.83052 8.76812,2.83052 z"
           clip-path="url(#pa0598f66fb)"
           style="fill:#808080;stroke:#000000;stroke-linecap:butt;stroke-linejoin:miter"
           id="path815"
           inkscape:connector-curvature="0" />
      </g>
      <g
         id="patch_8"
         style="stroke-linecap:butt;stroke-linejoin:round;fill:#808080">
        <path
           d="m 294.6,301.056 c 3.28852,0 6.44279,-1.01826 8.76812,-2.83052 C 305.69346,296.41322 307,293.95492 307,291.392 c 0,-2.56292 -1.30654,-5.02122 -3.63188,-6.83348 -2.32533,-1.81226 -5.4796,-2.83052 -8.76812,-2.83052 -3.28852,0 -6.44279,1.01826 -8.76812,2.83052 -2.32534,1.81226 -3.63188,4.27056 -3.63188,6.83348 0,2.56292 1.30654,5.02122 3.63188,6.83348 2.32533,1.81226 5.4796,2.83052 8.76812,2.83052 z"
           clip-path="url(#pa0598f66fb)"
           style="fill:#808080;stroke:#000000;stroke-linecap:butt;stroke-linejoin:miter"
           id="path818"
           inkscape:connector-curvature="0" />
      </g>
      <g
         id="patch_9"
         style="stroke-linecap:butt;stroke-linejoin:round;fill:#808080">
        <path
           d="m 294.6,339.712 c 3.28852,0 6.44279,-1.01826 8.76812,-2.83052 C 305.69346,335.06922 307,332.61092 307,330.048 c 0,-2.56292 -1.30654,-5.02122 -3.63188,-6.83348 -2.32533,-1.81226 -5.4796,-2.83052 -8.76812,-2.83052 -3.28852,0 -6.44279,1.01826 -8.76812,2.83052 -2.32534,1.81226 -3.63188,4.27056 -3.63188,6.83348 0,2.56292 1.30654,5.02122 3.63188,6.83348 2.32533,1.81226 5.4796,2.83052 8.76812,2.83052 z"
           clip-path="url(#pa0598f66fb)"
           style="fill:#808080;stroke:#000000;stroke-linecap:butt;stroke-linejoin:miter"
           id="path821"
           inkscape:connector-curvature="0" />
      </g>
      <g
         id="patch_10"
         style="stroke-linecap:butt;stroke-linejoin:round;fill:#808080">
        <path
           d="m 294.6,378.368 c 3.28852,0 6.44279,-1.01826 8.76812,-2.83052 C 305.69346,373.72522 307,371.26692 307,368.704 c 0,-2.56292 -1.30654,-5.02122 -3.63188,-6.83348 -2.32533,-1.81226 -5.4796,-2.83052 -8.76812,-2.83052 -3.28852,0 -6.44279,1.01826 -8.76812,2.83052 -2.32534,1.81226 -3.63188,4.27056 -3.63188,6.83348 0,2.56292 1.30654,5.02122 3.63188,6.83348 2.32533,1.81226 5.4796,2.83052 8.76812,2.83052 z"
           clip-path="url(#pa0598f66fb)"
           style="fill:#808080;stroke:#000000;stroke-linecap:butt;stroke-linejoin:miter"
           id="path824"
           inkscape:connector-curvature="0" />
      </g>
      <g
         id="patch_11"
         style="stroke-linecap:butt;stroke-linejoin:round;fill:#808080">
        <path
           d="m 294.6,417.024 c 3.28852,0 6.44279,-1.01826 8.76812,-2.83052 C 305.69346,412.38122 307,409.92292 307,407.36 c 0,-2.56292 -1.30654,-5.02122 -3.63188,-6.83348 -2.32533,-1.81226 -5.4796,-2.83052 -8.76812,-2.83052 -3.28852,0 -6.44279,1.01826 -8.76812,2.83052 -2.32534,1.81226 -3.63188,4.27056 -3.63188,6.83348 0,2.56292 1.30654,5.02122 3.63188,6.83348 2.32533,1.81226 5.4796,2.83052 8.76812,2.83052 z"
           clip-path="url(#pa0598f66fb)"
           style="fill:#808080;stroke:#000000;stroke-linecap:butt;stroke-linejoin:miter"
           id="path827"
           inkscape:connector-curvature="0" />
      </g>
      <g
         id="patch_12"
         style="stroke-linecap:butt;stroke-linejoin:round;fill:#808080">
        <path
           d="m 294.6,455.68 c 3.28852,0 6.44279,-1.01826 8.76812,-2.83052 C 305.69346,451.03722 307,448.57892 307,446.016 c 0,-2.56292 -1.30654,-5.02122 -3.63188,-6.83348 -2.32533,-1.81226 -5.4796,-2.83052 -8.76812,-2.83052 -3.28852,0 -6.44279,1.01826 -8.76812,2.83052 -2.32534,1.81226 -3.63188,4.27056 -3.63188,6.83348 0,2.56292 1.30654,5.02122 3.63188,6.83348 2.32533,1.81226 5.4796,2.83052 8.76812,2.83052 z"
           clip-path="url(#pa0598f66fb)"
           style="fill:#808080;stroke:#000000;stroke-linecap:butt;stroke-linejoin:miter"
           id="path830"
           inkscape:connector-curvature="0" />
      </g>
      <g
         id="patch_15"
         style="stroke-linecap:butt;stroke-linejoin:round;fill:#808080">
        <path
           d="m 443.4,262.4 c 3.28852,0 6.44279,-1.01826 8.76812,-2.83052 2.32534,-1.81226 3.63188,-4.27056 3.63188,-6.83348 0,-2.56292 -1.30654,-5.02122 -3.63188,-6.83348 -2.32533,-1.81226 -5.4796,-2.83052 -8.76812,-2.83052 -3.28852,0 -6.44279,1.01826 -8.76812,2.83052 C 432.30654,247.71478 431,250.17308 431,252.736 c 0,2.56292 1.30654,5.02122 3.63188,6.83348 2.32533,1.81226 5.4796,2.83052 8.76812,2.83052 z"
           clip-path="url(#pa0598f66fb)"
           style="fill:#808080;stroke:#000000;stroke-linecap:butt;stroke-linejoin:miter"
           id="path839"
           inkscape:connector-curvature="0" />
      </g>
      <g
         id="patch_16"
         style="stroke-linecap:butt;stroke-linejoin:round;fill:#808080">
        <path
           d="m 443.4,301.056 c 3.28852,0 6.44279,-1.01826 8.76812,-2.83052 2.32534,-1.81226 3.63188,-4.27056 3.63188,-6.83348 0,-2.56292 -1.30654,-5.02122 -3.63188,-6.83348 -2.32533,-1.81226 -5.4796,-2.83052 -8.76812,-2.83052 -3.28852,0 -6.44279,1.01826 -8.76812,2.83052 C 432.30654,286.37078 431,288.82908 431,291.392 c 0,2.56292 1.30654,5.02122 3.63188,6.83348 2.32533,1.81226 5.4796,2.83052 8.76812,2.83052 z"
           clip-path="url(#pa0598f66fb)"
           style="fill:#808080;stroke:#000000;stroke-linecap:butt;stroke-linejoin:miter"
           id="path842"
           inkscape:connector-curvature="0" />
      </g>
      <g
         id="patch_17"
         style="stroke-linecap:butt;stroke-linejoin:round;fill:#808080">
        <path
           d="m 443.4,339.712 c 3.28852,0 6.44279,-1.01826 8.76812,-2.83052 2.32534,-1.81226 3.63188,-4.27056 3.63188,-6.83348 0,-2.56292 -1.30654,-5.02122 -3.63188,-6.83348 -2.32533,-1.81226 -5.4796,-2.83052 -8.76812,-2.83052 -3.28852,0 -6.44279,1.01826 -8.76812,2.83052 C 432.30654,325.02678 431,327.48508 431,330.048 c 0,2.56292 1.30654,5.02122 3.63188,6.83348 2.32533,1.81226 5.4796,2.83052 8.76812,2.83052 z"
           clip-path="url(#pa0598f66fb)"
           style="fill:#808080;stroke:#000000;stroke-linecap:butt;stroke-linejoin:miter"
           id="path845"
           inkscape:connector-curvature="0" />
      </g>
      <g
         id="patch_18"
         style="stroke-linecap:butt;stroke-linejoin:round;fill:#808080">
        <path
           d="m 443.4,378.368 c 3.28852,0 6.44279,-1.01826 8.76812,-2.83052 2.32534,-1.81226 3.63188,-4.27056 3.63188,-6.83348 0,-2.56292 -1.30654,-5.02122 -3.63188,-6.83348 -2.32533,-1.81226 -5.4796,-2.83052 -8.76812,-2.83052 -3.28852,0 -6.44279,1.01826 -8.76812,2.83052 C 432.30654,363.68278 431,366.14108 431,368.704 c 0,2.56292 1.30654,5.02122 3.63188,6.83348 2.32533,1.81226 5.4796,2.83052 8.76812,2.83052 z"
           clip-path="url(#pa0598f66fb)"
           style="fill:#808080;stroke:#000000;stroke-linecap:butt;stroke-linejoin:miter"
           id="path848"
           inkscape:connector-curvature="0" />
      </g>
      <g
         id="patch_19"
         style="stroke-linecap:butt;stroke-linejoin:round;fill:#808080">
        <path
           d="m 443.4,417.024 c 3.28852,0 6.44279,-1.01826 8.76812,-2.83052 2.32534,-1.81226 3.63188,-4.27056 3.63188,-6.83348 0,-2.56292 -1.30654,-5.02122 -3.63188,-6.83348 -2.32533,-1.81226 -5.4796,-2.83052 -8.76812,-2.83052 -3.28852,0 -6.44279,1.01826 -8.76812,2.83052 C 432.30654,402.33878 431,404.79708 431,407.36 c 0,2.56292 1.30654,5.02122 3.63188,6.83348 2.32533,1.81226 5.4796,2.83052 8.76812,2.83052 z"
           clip-path="url(#pa0598f66fb)"
           style="fill:#808080;stroke:#000000;stroke-linecap:butt;stroke-linejoin:miter"
           id="path851"
           inkscape:connector-curvature="0" />
      </g>
      <g
         id="patch_21"
         style="fill:#ff0000;stroke-linecap:butt;stroke-linejoin:round">
        <path
           d="m 592.2,339.712 c 3.28852,0 6.44279,-1.01826 8.76812,-2.83052 2.32534,-1.81226 3.63188,-4.27056 3.63188,-6.83348 0,-2.56292 -1.30654,-5.02122 -3.63188,-6.83348 -2.32533,-1.81226 -5.4796,-2.83052 -8.76812,-2.83052 -3.28852,0 -6.44279,1.01826 -8.76812,2.83052 -2.32534,1.81226 -3.63188,4.27056 -3.63188,6.83348 0,2.56292 1.30654,5.02122 3.63188,6.83348 2.32533,1.81226 5.4796,2.83052 8.76812,2.83052 z"
           clip-path="url(#pa0598f66fb)"
           style="fill:#ff0000;stroke:#000000;stroke-linecap:butt;stroke-linejoin:miter"
           id="path857"
           inkscape:connector-curvature="0" />
      </g>
      <g
         id="g1435"
         transform="translate(457.83538,197.74649)"
         style="stroke-linecap:butt;stroke-linejoin:round">
        <g
           word-spacing="normal"
           letter-spacing="normal"
           font-size-adjust="none"
           font-stretch="normal"
           font-weight="normal"
           font-variant="normal"
           font-style="normal"
           stroke-miterlimit="10.433"
           xml:space="preserve"
           transform="matrix(0.47418653,0,0,-0.47418653,-82.982642,312.70198)"
           id="content"
           style="font-style:normal;font-variant:normal;font-weight:normal;font-stretch:normal;letter-spacing:normal;word-spacing:normal;text-anchor:start;fill:none;fill-opacity:1;fill-rule:evenodd;stroke:#000000;stroke-linecap:butt;stroke-linejoin:round;stroke-miterlimit:10.433;stroke-dasharray:none;stroke-dashoffset:0;stroke-opacity:1"><path
             id="path1430"
             d="m 481.33,424.78 h 0.07 0.07 0.07 0.08 0.09 l 0.09,0.01 h 0.09 l 0.09,0.01 0.1,0.01 0.1,0.02 0.1,0.02 0.11,0.02 0.1,0.02 0.1,0.03 0.1,0.03 0.1,0.04 0.1,0.04 0.1,0.05 0.09,0.05 0.09,0.06 0.08,0.07 0.08,0.07 0.04,0.04 0.04,0.04 0.03,0.04 0.04,0.05 0.03,0.04 0.03,0.05 0.03,0.05 0.03,0.05 0.03,0.05 0.02,0.06 0.02,0.06 0.02,0.06 0.02,0.06 0.02,0.06 0.01,0.07 0.01,0.07 0.01,0.07 v 0.08 l 0.01,0.07 v 0.08 c 0,1.19 -1.05,1.19 -1.94,1.19 h -11.36 c -7.53,0 -13.06,-8.22 -13.06,-14.14 0,-4.39 2.94,-7.88 7.47,-7.88 l 0.06,1.1 c -2.45,0 -4.44,1.79 -4.44,5.37 0,1.5 0.6,5.59 2.35,8.53 2.09,3.44 5.08,4.13 6.76,4.13 4.19,0 4.6,-3.28 4.6,-4.83 0,-2.34 -1,-6.42 -2.69,-8.97 -1.95,-2.94 -4.64,-4.23 -6.58,-4.23 v 0 l -0.06,-1.1 c 5.89,0 12.51,6.03 12.51,13.71 0,0.84 0,3.23 -1.54,5.42 z"
             inkscape:connector-curvature="0"
             style="fill:#000000;stroke-width:0;stroke-linecap:butt;stroke-linejoin:round" /></g>
      </g>
      <text
         xml:space="preserve"
         style="font-style:normal;font-variant:normal;font-weight:normal;font-stretch:normal;font-size:21.6932px;line-height:1.25;font-family:'Ubuntu Condensed';-inkscape-font-specification:'Ubuntu Condensed, Normal';font-variant-ligatures:normal;font-variant-caps:normal;font-variant-numeric:normal;font-feature-settings:normal;text-align:start;letter-spacing:0px;word-spacing:0px;writing-mode:lr-tb;text-anchor:start;fill:#000000;fill-opacity:1;stroke:none;stroke-width:0.813495;stroke-linecap:butt;stroke-linejoin:round"
         x="216.00214"
         y="515.04999"
         id="text1467"
         transform="scale(1.0846594,0.9219484)"><tspan
           sodipodi:role="line"
           id="tspan1465"
           style="font-style:normal;font-variant:normal;font-weight:normal;font-stretch:normal;font-size:17.3546px;font-family:Ubuntu;-inkscape-font-specification:Ubuntu;stroke-width:0.813495;stroke-linecap:butt;stroke-linejoin:round"
           x="216.00214"
           y="515.04999">Hidden layer 1</tspan></text>
      <text
         xml:space="preserve"
         style="font-style:normal;font-variant:normal;font-weight:normal;font-stretch:normal;font-size:21.6932px;line-height:1.25;font-family:'Ubuntu Condensed';-inkscape-font-specification:'Ubuntu Condensed, Normal';font-variant-ligatures:normal;font-variant-caps:normal;font-variant-numeric:normal;font-feature-settings:normal;text-align:start;letter-spacing:0px;word-spacing:0px;writing-mode:lr-tb;text-anchor:start;fill:#000000;fill-opacity:1;stroke:none;stroke-width:0.813495;stroke-linecap:butt;stroke-linejoin:round"
         x="352.13812"
         y="515.04999"
         id="text1471"
         transform="scale(1.0846594,0.9219484)"><tspan
           sodipodi:role="line"
           id="tspan1469"
           style="font-style:normal;font-variant:normal;font-weight:normal;font-stretch:normal;font-size:17.3546px;font-family:Ubuntu;-inkscape-font-specification:Ubuntu;stroke-width:0.813495;stroke-linecap:butt;stroke-linejoin:round"
           x="352.13812"
           y="515.04999">Hidden layer 2</tspan></text>
      <text
         xml:space="preserve"
         style="font-style:normal;font-variant:normal;font-weight:normal;font-stretch:normal;font-size:21.6932px;line-height:1.25;font-family:'Ubuntu Condensed';-inkscape-font-specification:'Ubuntu Condensed, Normal';font-variant-ligatures:normal;font-variant-caps:normal;font-variant-numeric:normal;font-feature-settings:normal;text-align:start;letter-spacing:0px;word-spacing:0px;writing-mode:lr-tb;text-anchor:start;fill:#000000;fill-opacity:1;stroke:none;stroke-width:0.813495;stroke-linecap:butt;stroke-linejoin:round"
         x="91.207329"
         y="515.04999"
         id="text1475"
         transform="scale(1.0846594,0.9219484)"><tspan
           sodipodi:role="line"
           id="tspan1473"
           style="font-style:normal;font-variant:normal;font-weight:normal;font-stretch:normal;font-size:17.3546px;font-family:Ubuntu;-inkscape-font-specification:Ubuntu;stroke-width:0.813495;stroke-linecap:butt;stroke-linejoin:round"
           x="91.207329"
           y="515.04999">Entry layer</tspan></text>
      <text
         xml:space="preserve"
         style="font-style:normal;font-variant:normal;font-weight:normal;font-stretch:normal;font-size:21.6932px;line-height:1.25;font-family:'Ubuntu Condensed';-inkscape-font-specification:'Ubuntu Condensed, Normal';font-variant-ligatures:normal;font-variant-caps:normal;font-variant-numeric:normal;font-feature-settings:normal;text-align:start;letter-spacing:0px;word-spacing:0px;writing-mode:lr-tb;text-anchor:start;fill:#000000;fill-opacity:1;stroke:none;stroke-width:0.813495;stroke-linecap:butt;stroke-linejoin:round"
         x="495.4762"
         y="515.0415"
         id="text1479"
         transform="scale(1.0846594,0.9219484)"><tspan
           sodipodi:role="line"
           id="tspan1477"
           style="font-style:normal;font-variant:normal;font-weight:normal;font-stretch:normal;font-size:17.3546px;font-family:Ubuntu;-inkscape-font-specification:Ubuntu;stroke-width:0.813495;stroke-linecap:butt;stroke-linejoin:round"
           x="495.4762"
           y="515.0415">Output layer</tspan></text>
    </g>
    <g
       id="g2220"
       transform="translate(-1.0497807,178.42118)"
       style="stroke-linecap:butt;stroke-linejoin:round">
      <g
         word-spacing="normal"
         letter-spacing="normal"
         font-size-adjust="none"
         font-stretch="normal"
         font-weight="normal"
         font-variant="normal"
         font-style="normal"
         stroke-miterlimit="10.433"
         xml:space="preserve"
         transform="matrix(0.47418653,0,0,-0.47418653,-82.982642,310.44403)"
         id="g2218"
         style="font-style:normal;font-variant:normal;font-weight:normal;font-stretch:normal;letter-spacing:normal;word-spacing:normal;text-anchor:start;fill:none;fill-opacity:1;fill-rule:evenodd;stroke:#000000;stroke-linecap:butt;stroke-linejoin:round;stroke-miterlimit:10.433;stroke-dasharray:none;stroke-dashoffset:0;stroke-opacity:1"><path
           id="path2214"
           d="m 462.55,417.51 0.15,-0.06 0.15,-0.06 0.15,-0.06 0.15,-0.05 0.15,-0.05 0.15,-0.04 0.14,-0.05 0.15,-0.03 0.14,-0.04 0.14,-0.03 0.29,-0.06 0.27,-0.05 0.27,-0.03 0.27,-0.03 0.26,-0.02 0.25,-0.02 0.25,-0.01 0.25,-0.01 h 0.24 0.23 0.23 v 1.09 c -1.1,0 -1.71,0 -2.64,0.25 v 0 c 1.14,0.41 2.19,0.46 3.03,0.46 1.25,0 1.45,-0.05 2.34,-0.3 -0.75,-0.35 -0.84,-0.41 -2.73,-0.41 v -1.09 c 1.29,0 4.03,0 4.03,1.55 0,1.2 -1.75,1.34 -3.64,1.34 -1.05,0 -2.78,-0.09 -4.63,-0.94 -1.15,0.6 -2,1.53 -2,2.88 0,3.04 4.89,4.84 9.38,4.84 0.8,0 2.58,0 4.58,-1.41 0.54,-0.39 0.64,-0.48 1,-0.48 0.64,0 1.34,0.64 1.34,1.34 0,0.94 -3.05,2.83 -6.42,2.83 -5.74,0 -11.11,-3.33 -11.11,-7.12 0,-2.14 1.78,-3.38 1.98,-3.53 -2.93,-1.65 -4.53,-4.44 -4.53,-6.72 0,-3.25 2.85,-6.28 8.13,-6.28 6.58,0 9.36,4.37 9.36,5.12 0,0.3 -0.25,0.5 -0.55,0.5 -0.25,0 -0.39,-0.2 -0.5,-0.34 -0.7,-1.14 -1.89,-2.99 -7.87,-2.99 -3.04,0 -7.27,0.74 -7.27,4.28 0,1.69 1.39,4.33 4.44,5.83 z"
           inkscape:connector-curvature="0"
           style="fill:#000000;stroke-width:0;stroke-linecap:butt;stroke-linejoin:round" /></g>
    </g>
  </g>
  <defs
     id="defs865">
    <clipPath
       id="pa0598f66fb"
       style="stroke-linecap:butt;stroke-linejoin:round">
      <rect
         x="90"
         y="69.120003"
         width="558"
         height="434.88"
         id="rect862"
         style="stroke-linecap:butt;stroke-linejoin:round" />
    </clipPath>
  </defs>
</svg>
