<?xml version="1.0" encoding="utf-8" standalone="no"?>
<!DOCTYPE svg PUBLIC "-//W3C//DTD SVG 1.1//EN"
  "http://www.w3.org/Graphics/SVG/1.1/DTD/svg11.dtd">
<svg xmlns:xlink="http://www.w3.org/1999/xlink" width="716.028022pt" height="503.001745pt" viewBox="0 0 716.028022 503.001745" xmlns="http://www.w3.org/2000/svg" version="1.1">
 <metadata>
  <rdf:RDF xmlns:dc="http://purl.org/dc/elements/1.1/" xmlns:cc="http://creativecommons.org/ns#" xmlns:rdf="http://www.w3.org/1999/02/22-rdf-syntax-ns#">
   <cc:Work>
    <dc:type rdf:resource="http://purl.org/dc/dcmitype/StillImage"/>
    <dc:date>2023-07-12T16:14:01.471929</dc:date>
    <dc:format>image/svg+xml</dc:format>
    <dc:creator>
     <cc:Agent>
      <dc:title>Matplotlib v3.7.1, https://matplotlib.org/</dc:title>
     </cc:Agent>
    </dc:creator>
   </cc:Work>
  </rdf:RDF>
 </metadata>
 <defs>
  <style type="text/css">*{stroke-linejoin: round; stroke-linecap: butt}</style>
 </defs>
 <g id="figure_1">
  <g id="patch_1">
   <path d="M 0 503.001745 
L 716.028022 503.001745 
L 716.028022 0 
L 0 0 
L 0 503.001745 
z
" style="fill: none"/>
  </g>
  <g id="axes_1">
   <g id="patch_2">
    <path d="M 51.408712 462.0888 
L 703.710712 462.0888 
L 703.710712 3.6 
L 51.408712 3.6 
L 51.408712 462.0888 
z
" style="fill: none"/>
   </g>
   <g id="matplotlib.axis_1">
    <g id="xtick_1">
     <g id="line2d_1">
      <path d="M 51.408712 462.0888 
L 51.408712 3.6 
" clip-path="url(#p6759cb6d5d)" style="fill: none; stroke: #b0b0b0; stroke-width: 0.5; stroke-linecap: square"/>
     </g>
     <g id="line2d_2">
      <defs>
       <path id="me315c83ef6" d="M 0 0 
L 0 -6 
" style="stroke: #000000"/>
      </defs>
      <g>
       <use xlink:href="#me315c83ef6" x="51.408712" y="462.0888" style="stroke: #000000"/>
      </g>
     </g>
     <g id="line2d_3">
      <defs>
       <path id="mc0534af479" d="M 0 0 
L 0 6 
" style="stroke: #000000"/>
      </defs>
      <g>
       <use xlink:href="#mc0534af479" x="51.408712" y="3.6" style="stroke: #000000"/>
      </g>
     </g>
     <g id="text_1">
      <!-- $\mathdefault{0.0}$ -->
      <g transform="translate(42.691402 475.568329) scale(0.14 -0.14)">
       <defs>
        <path id="URWPalladioL-Roma-30" d="M 1683 4416 
C 691 4416 186 3628 186 2076 
C 186 1326 320 679 544 365 
C 768 51 1126 -128 1523 -128 
C 2490 -128 2976 704 2976 2345 
C 2976 3749 2560 4416 1683 4416 
z
M 1568 4191 
C 2189 4191 2438 3563 2438 2025 
C 2438 660 2195 96 1606 96 
C 986 96 723 743 723 2307 
C 723 3660 960 4191 1568 4191 
z
" transform="scale(0.015625)"/>
        <path id="URWPalladioL-Roma-2e" d="M 794 678 
C 602 678 429 499 429 307 
C 429 115 602 -64 787 -64 
C 992 -64 1171 108 1171 307 
C 1171 499 992 678 794 678 
z
" transform="scale(0.015625)"/>
       </defs>
       <use xlink:href="#URWPalladioL-Roma-30" transform="scale(0.996264)"/>
       <use xlink:href="#URWPalladioL-Roma-2e" transform="translate(49.8132 0) scale(0.996264)"/>
       <use xlink:href="#URWPalladioL-Roma-30" transform="translate(74.719801 0) scale(0.996264)"/>
      </g>
     </g>
    </g>
    <g id="xtick_2">
     <g id="line2d_4">
      <path d="M 144.594712 462.0888 
L 144.594712 3.6 
" clip-path="url(#p6759cb6d5d)" style="fill: none; stroke: #b0b0b0; stroke-width: 0.5; stroke-linecap: square"/>
     </g>
     <g id="line2d_5">
      <g>
       <use xlink:href="#me315c83ef6" x="144.594712" y="462.0888" style="stroke: #000000"/>
      </g>
     </g>
     <g id="line2d_6">
      <g>
       <use xlink:href="#mc0534af479" x="144.594712" y="3.6" style="stroke: #000000"/>
      </g>
     </g>
     <g id="text_2">
      <!-- $\mathdefault{0.1}$ -->
      <g transform="translate(135.877402 475.568329) scale(0.14 -0.14)">
       <defs>
        <path id="URWPalladioL-Roma-31" d="M 429 3571 
L 493 3571 
L 1318 3942 
C 1325 3949 1331 3949 1338 3949 
C 1376 3949 1389 3891 1389 3737 
L 1389 633 
C 1389 300 1318 230 973 211 
L 614 192 
L 614 0 
C 1600 0 1600 0 1670 0 
C 1754 0 1894 0 2112 -7 
C 2189 6 2413 6 2675 0 
L 2675 192 
L 2342 211 
C 1990 229 1926 299 1926 628 
L 1926 4383 
L 1837 4416 
C 1421 4199 966 4009 384 3807 
L 429 3571 
z
" transform="scale(0.015625)"/>
       </defs>
       <use xlink:href="#URWPalladioL-Roma-30" transform="scale(0.996264)"/>
       <use xlink:href="#URWPalladioL-Roma-2e" transform="translate(49.8132 0) scale(0.996264)"/>
       <use xlink:href="#URWPalladioL-Roma-31" transform="translate(74.719801 0) scale(0.996264)"/>
      </g>
     </g>
    </g>
    <g id="xtick_3">
     <g id="line2d_7">
      <path d="M 237.780712 462.0888 
L 237.780712 3.6 
" clip-path="url(#p6759cb6d5d)" style="fill: none; stroke: #b0b0b0; stroke-width: 0.5; stroke-linecap: square"/>
     </g>
     <g id="line2d_8">
      <g>
       <use xlink:href="#me315c83ef6" x="237.780712" y="462.0888" style="stroke: #000000"/>
      </g>
     </g>
     <g id="line2d_9">
      <g>
       <use xlink:href="#mc0534af479" x="237.780712" y="3.6" style="stroke: #000000"/>
      </g>
     </g>
     <g id="text_3">
      <!-- $\mathdefault{0.2}$ -->
      <g transform="translate(229.063402 475.568329) scale(0.14 -0.14)">
       <defs>
        <path id="URWPalladioL-Roma-32" d="M 102 166 
L 102 0 
C 1299 0 1299 0 1530 0 
C 1760 19 1760 19 2995 0 
C 2982 134 2982 198 2982 287 
C 2982 370 2982 434 2995 574 
C 2259 542 1965 536 781 510 
L 1946 1741 
C 2566 2398 2758 2749 2758 3228 
C 2758 3961 2259 4416 1446 4416 
C 986 4416 672 4287 358 3967 
L 250 3100 
L 435 3100 
L 518 3394 
C 621 3763 851 3923 1280 3923 
C 1830 3923 2182 3578 2182 3036 
C 2182 2558 1914 2086 1190 1320 
L 102 166 
z
" transform="scale(0.015625)"/>
       </defs>
       <use xlink:href="#URWPalladioL-Roma-30" transform="scale(0.996264)"/>
       <use xlink:href="#URWPalladioL-Roma-2e" transform="translate(49.8132 0) scale(0.996264)"/>
       <use xlink:href="#URWPalladioL-Roma-32" transform="translate(74.719801 0) scale(0.996264)"/>
      </g>
     </g>
    </g>
    <g id="xtick_4">
     <g id="line2d_10">
      <path d="M 330.966712 462.0888 
L 330.966712 3.6 
" clip-path="url(#p6759cb6d5d)" style="fill: none; stroke: #b0b0b0; stroke-width: 0.5; stroke-linecap: square"/>
     </g>
     <g id="line2d_11">
      <g>
       <use xlink:href="#me315c83ef6" x="330.966712" y="462.0888" style="stroke: #000000"/>
      </g>
     </g>
     <g id="line2d_12">
      <g>
       <use xlink:href="#mc0534af479" x="330.966712" y="3.6" style="stroke: #000000"/>
      </g>
     </g>
     <g id="text_4">
      <!-- $\mathdefault{0.3}$ -->
      <g transform="translate(322.249402 475.568329) scale(0.14 -0.14)">
       <defs>
        <path id="URWPalladioL-Roma-33" d="M 275 3196 
L 474 3196 
L 589 3553 
C 659 3770 1062 3987 1395 3987 
C 1811 3987 2150 3649 2150 3247 
C 2150 2769 1773 2368 1318 2368 
C 1267 2368 1197 2374 1114 2380 
L 1018 2387 
L 941 2047 
L 986 2008 
C 1229 2118 1350 2150 1523 2150 
C 2054 2150 2362 1808 2362 1222 
C 2362 565 1971 134 1376 134 
C 1082 134 819 231 627 411 
C 474 553 390 701 269 1048 
L 96 984 
C 230 591 282 359 320 38 
C 659 -77 941 -128 1178 -128 
C 1690 -128 2278 160 2630 591 
C 2848 855 2957 1139 2957 1441 
C 2957 1750 2829 2021 2598 2182 
C 2438 2297 2291 2348 1971 2406 
C 2483 2801 2675 3094 2675 3470 
C 2675 4038 2202 4416 1491 4416 
C 1056 4416 768 4294 461 3987 
L 275 3196 
z
" transform="scale(0.015625)"/>
       </defs>
       <use xlink:href="#URWPalladioL-Roma-30" transform="scale(0.996264)"/>
       <use xlink:href="#URWPalladioL-Roma-2e" transform="translate(49.8132 0) scale(0.996264)"/>
       <use xlink:href="#URWPalladioL-Roma-33" transform="translate(74.719801 0) scale(0.996264)"/>
      </g>
     </g>
    </g>
    <g id="xtick_5">
     <g id="line2d_13">
      <path d="M 424.152712 462.0888 
L 424.152712 3.6 
" clip-path="url(#p6759cb6d5d)" style="fill: none; stroke: #b0b0b0; stroke-width: 0.5; stroke-linecap: square"/>
     </g>
     <g id="line2d_14">
      <g>
       <use xlink:href="#me315c83ef6" x="424.152712" y="462.0888" style="stroke: #000000"/>
      </g>
     </g>
     <g id="line2d_15">
      <g>
       <use xlink:href="#mc0534af479" x="424.152712" y="3.6" style="stroke: #000000"/>
      </g>
     </g>
     <g id="text_5">
      <!-- $\mathdefault{0.4}$ -->
      <g transform="translate(415.435402 475.568329) scale(0.14 -0.14)">
       <defs>
        <path id="URWPalladioL-Roma-34" d="M 1792 1152 
L 1792 684 
C 1792 310 1722 223 1408 210 
L 1011 192 
L 1011 0 
C 1862 0 1862 0 2016 0 
C 2170 19 2170 19 3021 0 
L 3021 192 
L 2714 210 
C 2400 229 2330 310 2330 684 
L 2330 1152 
C 2707 1152 2842 1145 3021 1127 
L 3021 1580 
C 2720 1555 2598 1555 2502 1561 
L 2483 1561 
L 2330 1561 
L 2330 2445 
C 2330 3576 2342 4122 2374 4383 
L 2298 4416 
L 1824 4243 
L 13 1299 
L 83 1152 
L 1792 1152 
z
M 1792 1561 
L 416 1561 
L 1792 3798 
L 1792 1561 
z
" transform="scale(0.015625)"/>
       </defs>
       <use xlink:href="#URWPalladioL-Roma-30" transform="scale(0.996264)"/>
       <use xlink:href="#URWPalladioL-Roma-2e" transform="translate(49.8132 0) scale(0.996264)"/>
       <use xlink:href="#URWPalladioL-Roma-34" transform="translate(74.719801 0) scale(0.996264)"/>
      </g>
     </g>
    </g>
    <g id="xtick_6">
     <g id="line2d_16">
      <path d="M 517.338712 462.0888 
L 517.338712 3.6 
" clip-path="url(#p6759cb6d5d)" style="fill: none; stroke: #b0b0b0; stroke-width: 0.5; stroke-linecap: square"/>
     </g>
     <g id="line2d_17">
      <g>
       <use xlink:href="#me315c83ef6" x="517.338712" y="462.0888" style="stroke: #000000"/>
      </g>
     </g>
     <g id="line2d_18">
      <g>
       <use xlink:href="#mc0534af479" x="517.338712" y="3.6" style="stroke: #000000"/>
      </g>
     </g>
     <g id="text_6">
      <!-- $\mathdefault{0.5}$ -->
      <g transform="translate(508.621402 475.568329) scale(0.14 -0.14)">
       <defs>
        <path id="URWPalladioL-Roma-35" d="M 813 3891 
C 1638 3865 1997 3859 2765 3859 
L 2797 3891 
C 2784 4006 2784 4057 2784 4140 
C 2784 4230 2784 4281 2797 4396 
L 2765 4428 
C 2285 4403 1997 4396 1651 4396 
C 1299 4396 1018 4403 538 4428 
L 506 4396 
C 512 4006 518 3724 518 3520 
C 518 2976 499 2360 480 2076 
L 608 2038 
C 909 2341 1082 2432 1395 2432 
C 2010 2432 2394 1992 2394 1295 
C 2394 579 1984 160 1286 160 
C 941 160 621 276 531 443 
L 237 973 
L 83 882 
C 230 514 307 308 397 25 
C 576 -71 832 -128 1107 -128 
C 1536 -128 1990 57 2342 366 
C 2733 715 2938 1153 2938 1631 
C 2938 2360 2419 2873 1690 2873 
C 1382 2873 1152 2790 755 2553 
L 813 3891 
z
" transform="scale(0.015625)"/>
       </defs>
       <use xlink:href="#URWPalladioL-Roma-30" transform="scale(0.996264)"/>
       <use xlink:href="#URWPalladioL-Roma-2e" transform="translate(49.8132 0) scale(0.996264)"/>
       <use xlink:href="#URWPalladioL-Roma-35" transform="translate(74.719801 0) scale(0.996264)"/>
      </g>
     </g>
    </g>
    <g id="xtick_7">
     <g id="line2d_19">
      <path d="M 610.524712 462.0888 
L 610.524712 3.6 
" clip-path="url(#p6759cb6d5d)" style="fill: none; stroke: #b0b0b0; stroke-width: 0.5; stroke-linecap: square"/>
     </g>
     <g id="line2d_20">
      <g>
       <use xlink:href="#me315c83ef6" x="610.524712" y="462.0888" style="stroke: #000000"/>
      </g>
     </g>
     <g id="line2d_21">
      <g>
       <use xlink:href="#mc0534af479" x="610.524712" y="3.6" style="stroke: #000000"/>
      </g>
     </g>
     <g id="text_7">
      <!-- $\mathdefault{0.6}$ -->
      <g transform="translate(601.807402 475.568329) scale(0.14 -0.14)">
       <defs>
        <path id="URWPalladioL-Roma-36" d="M 2662 4287 
L 2426 4396 
C 1811 4193 1549 4066 1222 3788 
C 563 3237 205 2463 205 1585 
C 205 526 717 -128 1542 -128 
C 2374 -128 2995 532 2995 1405 
C 2995 2143 2554 2624 1875 2624 
C 1555 2624 1363 2540 986 2239 
C 915 2182 909 2175 838 2124 
C 973 3275 1510 3895 2662 4237 
L 2662 4287 
z
M 1632 2239 
C 2118 2239 2445 1816 2445 1180 
C 2445 513 2118 83 1626 83 
C 1082 83 787 551 787 1411 
C 787 1636 813 1758 883 1867 
C 1024 2085 1325 2239 1632 2239 
z
" transform="scale(0.015625)"/>
       </defs>
       <use xlink:href="#URWPalladioL-Roma-30" transform="scale(0.996264)"/>
       <use xlink:href="#URWPalladioL-Roma-2e" transform="translate(49.8132 0) scale(0.996264)"/>
       <use xlink:href="#URWPalladioL-Roma-36" transform="translate(74.719801 0) scale(0.996264)"/>
      </g>
     </g>
    </g>
    <g id="xtick_8">
     <g id="line2d_22">
      <path d="M 703.710712 462.0888 
L 703.710712 3.6 
" clip-path="url(#p6759cb6d5d)" style="fill: none; stroke: #b0b0b0; stroke-width: 0.5; stroke-linecap: square"/>
     </g>
     <g id="line2d_23">
      <g>
       <use xlink:href="#me315c83ef6" x="703.710712" y="462.0888" style="stroke: #000000"/>
      </g>
     </g>
     <g id="line2d_24">
      <g>
       <use xlink:href="#mc0534af479" x="703.710712" y="3.6" style="stroke: #000000"/>
      </g>
     </g>
     <g id="text_8">
      <!-- $\mathdefault{0.7}$ -->
      <g transform="translate(694.993402 475.568329) scale(0.14 -0.14)">
       <defs>
        <path id="URWPalladioL-Roma-37" d="M 358 83 
L 416 0 
C 666 0 666 0 710 0 
C 755 19 755 19 1005 0 
C 1274 700 1587 1369 2010 2141 
L 3181 4255 
L 3181 4448 
C 2490 4422 2266 4416 1747 4416 
C 1280 4416 966 4422 346 4448 
L 282 4416 
C 301 3807 301 3807 301 3743 
C 301 3672 301 3672 282 3087 
L 474 3087 
L 518 3447 
C 570 3846 614 3897 909 3897 
L 2618 3897 
C 2362 3370 2163 2996 1920 2604 
L 358 83 
z
" transform="scale(0.015625)"/>
       </defs>
       <use xlink:href="#URWPalladioL-Roma-30" transform="scale(0.996264)"/>
       <use xlink:href="#URWPalladioL-Roma-2e" transform="translate(49.8132 0) scale(0.996264)"/>
       <use xlink:href="#URWPalladioL-Roma-37" transform="translate(74.719801 0) scale(0.996264)"/>
      </g>
     </g>
    </g>
    <g id="xtick_9">
     <g id="line2d_25">
      <defs>
       <path id="mf58db80c9d" d="M 0 0 
L 0 -3 
" style="stroke: #000000; stroke-width: 0.5"/>
      </defs>
      <g>
       <use xlink:href="#mf58db80c9d" x="70.045912" y="462.0888" style="stroke: #000000; stroke-width: 0.5"/>
      </g>
     </g>
     <g id="line2d_26">
      <defs>
       <path id="m413ad3d0c9" d="M 0 0 
L 0 3 
" style="stroke: #000000; stroke-width: 0.5"/>
      </defs>
      <g>
       <use xlink:href="#m413ad3d0c9" x="70.045912" y="3.6" style="stroke: #000000; stroke-width: 0.5"/>
      </g>
     </g>
    </g>
    <g id="xtick_10">
     <g id="line2d_27">
      <g>
       <use xlink:href="#mf58db80c9d" x="88.683112" y="462.0888" style="stroke: #000000; stroke-width: 0.5"/>
      </g>
     </g>
     <g id="line2d_28">
      <g>
       <use xlink:href="#m413ad3d0c9" x="88.683112" y="3.6" style="stroke: #000000; stroke-width: 0.5"/>
      </g>
     </g>
    </g>
    <g id="xtick_11">
     <g id="line2d_29">
      <g>
       <use xlink:href="#mf58db80c9d" x="107.320312" y="462.0888" style="stroke: #000000; stroke-width: 0.5"/>
      </g>
     </g>
     <g id="line2d_30">
      <g>
       <use xlink:href="#m413ad3d0c9" x="107.320312" y="3.6" style="stroke: #000000; stroke-width: 0.5"/>
      </g>
     </g>
    </g>
    <g id="xtick_12">
     <g id="line2d_31">
      <g>
       <use xlink:href="#mf58db80c9d" x="125.957512" y="462.0888" style="stroke: #000000; stroke-width: 0.5"/>
      </g>
     </g>
     <g id="line2d_32">
      <g>
       <use xlink:href="#m413ad3d0c9" x="125.957512" y="3.6" style="stroke: #000000; stroke-width: 0.5"/>
      </g>
     </g>
    </g>
    <g id="xtick_13">
     <g id="line2d_33">
      <g>
       <use xlink:href="#mf58db80c9d" x="163.231912" y="462.0888" style="stroke: #000000; stroke-width: 0.5"/>
      </g>
     </g>
     <g id="line2d_34">
      <g>
       <use xlink:href="#m413ad3d0c9" x="163.231912" y="3.6" style="stroke: #000000; stroke-width: 0.5"/>
      </g>
     </g>
    </g>
    <g id="xtick_14">
     <g id="line2d_35">
      <g>
       <use xlink:href="#mf58db80c9d" x="181.869112" y="462.0888" style="stroke: #000000; stroke-width: 0.5"/>
      </g>
     </g>
     <g id="line2d_36">
      <g>
       <use xlink:href="#m413ad3d0c9" x="181.869112" y="3.6" style="stroke: #000000; stroke-width: 0.5"/>
      </g>
     </g>
    </g>
    <g id="xtick_15">
     <g id="line2d_37">
      <g>
       <use xlink:href="#mf58db80c9d" x="200.506312" y="462.0888" style="stroke: #000000; stroke-width: 0.5"/>
      </g>
     </g>
     <g id="line2d_38">
      <g>
       <use xlink:href="#m413ad3d0c9" x="200.506312" y="3.6" style="stroke: #000000; stroke-width: 0.5"/>
      </g>
     </g>
    </g>
    <g id="xtick_16">
     <g id="line2d_39">
      <g>
       <use xlink:href="#mf58db80c9d" x="219.143512" y="462.0888" style="stroke: #000000; stroke-width: 0.5"/>
      </g>
     </g>
     <g id="line2d_40">
      <g>
       <use xlink:href="#m413ad3d0c9" x="219.143512" y="3.6" style="stroke: #000000; stroke-width: 0.5"/>
      </g>
     </g>
    </g>
    <g id="xtick_17">
     <g id="line2d_41">
      <g>
       <use xlink:href="#mf58db80c9d" x="256.417912" y="462.0888" style="stroke: #000000; stroke-width: 0.5"/>
      </g>
     </g>
     <g id="line2d_42">
      <g>
       <use xlink:href="#m413ad3d0c9" x="256.417912" y="3.6" style="stroke: #000000; stroke-width: 0.5"/>
      </g>
     </g>
    </g>
    <g id="xtick_18">
     <g id="line2d_43">
      <g>
       <use xlink:href="#mf58db80c9d" x="275.055112" y="462.0888" style="stroke: #000000; stroke-width: 0.5"/>
      </g>
     </g>
     <g id="line2d_44">
      <g>
       <use xlink:href="#m413ad3d0c9" x="275.055112" y="3.6" style="stroke: #000000; stroke-width: 0.5"/>
      </g>
     </g>
    </g>
    <g id="xtick_19">
     <g id="line2d_45">
      <g>
       <use xlink:href="#mf58db80c9d" x="293.692312" y="462.0888" style="stroke: #000000; stroke-width: 0.5"/>
      </g>
     </g>
     <g id="line2d_46">
      <g>
       <use xlink:href="#m413ad3d0c9" x="293.692312" y="3.6" style="stroke: #000000; stroke-width: 0.5"/>
      </g>
     </g>
    </g>
    <g id="xtick_20">
     <g id="line2d_47">
      <g>
       <use xlink:href="#mf58db80c9d" x="312.329512" y="462.0888" style="stroke: #000000; stroke-width: 0.5"/>
      </g>
     </g>
     <g id="line2d_48">
      <g>
       <use xlink:href="#m413ad3d0c9" x="312.329512" y="3.6" style="stroke: #000000; stroke-width: 0.5"/>
      </g>
     </g>
    </g>
    <g id="xtick_21">
     <g id="line2d_49">
      <g>
       <use xlink:href="#mf58db80c9d" x="349.603912" y="462.0888" style="stroke: #000000; stroke-width: 0.5"/>
      </g>
     </g>
     <g id="line2d_50">
      <g>
       <use xlink:href="#m413ad3d0c9" x="349.603912" y="3.6" style="stroke: #000000; stroke-width: 0.5"/>
      </g>
     </g>
    </g>
    <g id="xtick_22">
     <g id="line2d_51">
      <g>
       <use xlink:href="#mf58db80c9d" x="368.241112" y="462.0888" style="stroke: #000000; stroke-width: 0.5"/>
      </g>
     </g>
     <g id="line2d_52">
      <g>
       <use xlink:href="#m413ad3d0c9" x="368.241112" y="3.6" style="stroke: #000000; stroke-width: 0.5"/>
      </g>
     </g>
    </g>
    <g id="xtick_23">
     <g id="line2d_53">
      <g>
       <use xlink:href="#mf58db80c9d" x="386.878312" y="462.0888" style="stroke: #000000; stroke-width: 0.5"/>
      </g>
     </g>
     <g id="line2d_54">
      <g>
       <use xlink:href="#m413ad3d0c9" x="386.878312" y="3.6" style="stroke: #000000; stroke-width: 0.5"/>
      </g>
     </g>
    </g>
    <g id="xtick_24">
     <g id="line2d_55">
      <g>
       <use xlink:href="#mf58db80c9d" x="405.515512" y="462.0888" style="stroke: #000000; stroke-width: 0.5"/>
      </g>
     </g>
     <g id="line2d_56">
      <g>
       <use xlink:href="#m413ad3d0c9" x="405.515512" y="3.6" style="stroke: #000000; stroke-width: 0.5"/>
      </g>
     </g>
    </g>
    <g id="xtick_25">
     <g id="line2d_57">
      <g>
       <use xlink:href="#mf58db80c9d" x="442.789912" y="462.0888" style="stroke: #000000; stroke-width: 0.5"/>
      </g>
     </g>
     <g id="line2d_58">
      <g>
       <use xlink:href="#m413ad3d0c9" x="442.789912" y="3.6" style="stroke: #000000; stroke-width: 0.5"/>
      </g>
     </g>
    </g>
    <g id="xtick_26">
     <g id="line2d_59">
      <g>
       <use xlink:href="#mf58db80c9d" x="461.427112" y="462.0888" style="stroke: #000000; stroke-width: 0.5"/>
      </g>
     </g>
     <g id="line2d_60">
      <g>
       <use xlink:href="#m413ad3d0c9" x="461.427112" y="3.6" style="stroke: #000000; stroke-width: 0.5"/>
      </g>
     </g>
    </g>
    <g id="xtick_27">
     <g id="line2d_61">
      <g>
       <use xlink:href="#mf58db80c9d" x="480.064312" y="462.0888" style="stroke: #000000; stroke-width: 0.5"/>
      </g>
     </g>
     <g id="line2d_62">
      <g>
       <use xlink:href="#m413ad3d0c9" x="480.064312" y="3.6" style="stroke: #000000; stroke-width: 0.5"/>
      </g>
     </g>
    </g>
    <g id="xtick_28">
     <g id="line2d_63">
      <g>
       <use xlink:href="#mf58db80c9d" x="498.701512" y="462.0888" style="stroke: #000000; stroke-width: 0.5"/>
      </g>
     </g>
     <g id="line2d_64">
      <g>
       <use xlink:href="#m413ad3d0c9" x="498.701512" y="3.6" style="stroke: #000000; stroke-width: 0.5"/>
      </g>
     </g>
    </g>
    <g id="xtick_29">
     <g id="line2d_65">
      <g>
       <use xlink:href="#mf58db80c9d" x="535.975912" y="462.0888" style="stroke: #000000; stroke-width: 0.5"/>
      </g>
     </g>
     <g id="line2d_66">
      <g>
       <use xlink:href="#m413ad3d0c9" x="535.975912" y="3.6" style="stroke: #000000; stroke-width: 0.5"/>
      </g>
     </g>
    </g>
    <g id="xtick_30">
     <g id="line2d_67">
      <g>
       <use xlink:href="#mf58db80c9d" x="554.613112" y="462.0888" style="stroke: #000000; stroke-width: 0.5"/>
      </g>
     </g>
     <g id="line2d_68">
      <g>
       <use xlink:href="#m413ad3d0c9" x="554.613112" y="3.6" style="stroke: #000000; stroke-width: 0.5"/>
      </g>
     </g>
    </g>
    <g id="xtick_31">
     <g id="line2d_69">
      <g>
       <use xlink:href="#mf58db80c9d" x="573.250312" y="462.0888" style="stroke: #000000; stroke-width: 0.5"/>
      </g>
     </g>
     <g id="line2d_70">
      <g>
       <use xlink:href="#m413ad3d0c9" x="573.250312" y="3.6" style="stroke: #000000; stroke-width: 0.5"/>
      </g>
     </g>
    </g>
    <g id="xtick_32">
     <g id="line2d_71">
      <g>
       <use xlink:href="#mf58db80c9d" x="591.887512" y="462.0888" style="stroke: #000000; stroke-width: 0.5"/>
      </g>
     </g>
     <g id="line2d_72">
      <g>
       <use xlink:href="#m413ad3d0c9" x="591.887512" y="3.6" style="stroke: #000000; stroke-width: 0.5"/>
      </g>
     </g>
    </g>
    <g id="xtick_33">
     <g id="line2d_73">
      <g>
       <use xlink:href="#mf58db80c9d" x="629.161912" y="462.0888" style="stroke: #000000; stroke-width: 0.5"/>
      </g>
     </g>
     <g id="line2d_74">
      <g>
       <use xlink:href="#m413ad3d0c9" x="629.161912" y="3.6" style="stroke: #000000; stroke-width: 0.5"/>
      </g>
     </g>
    </g>
    <g id="xtick_34">
     <g id="line2d_75">
      <g>
       <use xlink:href="#mf58db80c9d" x="647.799112" y="462.0888" style="stroke: #000000; stroke-width: 0.5"/>
      </g>
     </g>
     <g id="line2d_76">
      <g>
       <use xlink:href="#m413ad3d0c9" x="647.799112" y="3.6" style="stroke: #000000; stroke-width: 0.5"/>
      </g>
     </g>
    </g>
    <g id="xtick_35">
     <g id="line2d_77">
      <g>
       <use xlink:href="#mf58db80c9d" x="666.436312" y="462.0888" style="stroke: #000000; stroke-width: 0.5"/>
      </g>
     </g>
     <g id="line2d_78">
      <g>
       <use xlink:href="#m413ad3d0c9" x="666.436312" y="3.6" style="stroke: #000000; stroke-width: 0.5"/>
      </g>
     </g>
    </g>
    <g id="xtick_36">
     <g id="line2d_79">
      <g>
       <use xlink:href="#mf58db80c9d" x="685.073512" y="462.0888" style="stroke: #000000; stroke-width: 0.5"/>
      </g>
     </g>
     <g id="line2d_80">
      <g>
       <use xlink:href="#m413ad3d0c9" x="685.073512" y="3.6" style="stroke: #000000; stroke-width: 0.5"/>
      </g>
     </g>
    </g>
    <g id="text_9">
     <!-- strain $\varepsilon$ -->
     <g transform="translate(352.402305 494.906684) scale(0.16 -0.16)">
      <defs>
       <path id="URWPalladioL-Roma-73" d="M 262 917 
C 262 474 243 282 192 25 
C 525 -84 774 -128 1069 -128 
C 1907 -128 2502 320 2502 949 
C 2502 1148 2445 1295 2323 1423 
C 2157 1584 1946 1661 1382 1770 
C 858 1872 685 2001 685 2296 
C 685 2617 909 2796 1299 2796 
C 1728 2796 2054 2572 2054 2270 
L 2054 2123 
L 2234 2123 
C 2240 2495 2246 2649 2266 2847 
C 1926 2963 1696 3008 1434 3008 
C 691 3008 237 2655 237 2078 
C 237 1770 378 1552 672 1417 
C 845 1340 1184 1237 1619 1141 
C 1907 1077 2029 942 2029 698 
C 2029 352 1709 108 1254 108 
C 787 108 454 333 454 654 
L 454 917 
L 262 917 
z
" transform="scale(0.015625)"/>
       <path id="URWPalladioL-Roma-74" d="M 627 2457 
L 627 614 
C 627 140 838 -64 1331 -64 
C 1478 -64 1632 -32 1670 12 
L 1978 352 
L 1894 460 
C 1734 371 1638 339 1517 339 
C 1267 339 1165 467 1165 780 
L 1165 2457 
L 1984 2457 
L 2042 2803 
L 1165 2764 
L 1165 3008 
C 1165 3277 1184 3507 1235 3917 
L 1158 3987 
C 1005 3891 813 3808 614 3744 
C 634 3552 640 3430 640 3238 
L 640 2790 
L 141 2566 
L 141 2432 
L 627 2457 
z
" transform="scale(0.015625)"/>
       <path id="URWPalladioL-Roma-72" d="M 147 2579 
L 384 2579 
C 640 2579 666 2534 666 2112 
L 666 672 
C 666 268 646 224 429 211 
L 134 192 
L 134 0 
C 595 -7 762 0 922 0 
C 1050 19 1050 19 1837 0 
L 1837 192 
L 1504 211 
C 1216 230 1203 249 1203 669 
L 1203 1763 
C 1203 2145 1459 2463 1773 2463 
C 1965 2463 2099 2374 2202 2171 
L 2336 2171 
L 2394 2937 
C 2323 2982 2208 3008 2093 3008 
C 1901 3008 1696 2905 1562 2745 
L 1203 2324 
L 1203 2982 
L 1146 3008 
C 819 2873 486 2783 147 2745 
L 147 2579 
z
" transform="scale(0.015625)"/>
       <path id="URWPalladioL-Roma-61" d="M 2074 544 
L 2042 0 
C 2458 0 2458 0 2541 0 
C 2573 19 2733 12 3014 0 
L 3014 192 
L 2765 204 
C 2611 211 2586 262 2586 576 
L 2586 1751 
C 2586 2688 2317 3027 1574 3027 
C 1299 3027 1043 2956 800 2809 
L 461 2604 
L 461 2187 
L 627 2142 
L 710 2341 
C 845 2642 909 2688 1203 2688 
C 1805 2688 2054 2450 2074 1866 
L 1440 1751 
C 570 1590 205 1289 205 730 
C 205 224 506 -64 1011 -64 
C 1126 -64 1235 -45 1280 -13 
L 2074 544 
z
M 2074 806 
C 1888 544 1485 300 1235 300 
C 979 300 755 537 755 812 
C 755 1049 883 1273 1075 1395 
C 1235 1491 1587 1580 2074 1651 
L 2074 806 
z
" transform="scale(0.015625)"/>
       <path id="URWPalladioL-Roma-69" d="M 1203 2982 
L 1146 3008 
C 819 2873 486 2784 147 2746 
L 147 2568 
L 384 2568 
C 640 2568 666 2523 666 2103 
L 666 669 
C 666 268 646 223 429 211 
L 134 192 
L 134 0 
C 774 0 774 0 934 0 
C 1094 19 1094 19 1734 0 
L 1734 192 
L 1440 211 
C 1222 224 1203 268 1203 671 
L 1203 2982 
z
M 909 4416 
C 717 4416 550 4249 550 4057 
C 550 3871 717 3705 902 3705 
C 1088 3705 1261 3871 1261 4057 
C 1261 4236 1088 4416 909 4416 
z
" transform="scale(0.015625)"/>
       <path id="URWPalladioL-Roma-6e" d="M 2624 0 
C 3014 0 3021 0 3130 0 
C 3219 19 3219 19 3661 0 
L 3661 192 
L 3398 211 
C 3181 223 3162 262 3162 670 
L 3162 1902 
C 3162 2649 2810 3014 2093 3014 
C 1856 3014 1722 2969 1587 2854 
L 1101 2432 
L 1101 2988 
L 1043 3008 
C 717 2873 384 2784 45 2746 
L 45 2568 
L 282 2568 
C 538 2568 563 2523 563 2103 
L 563 669 
C 563 268 544 223 326 211 
L 38 192 
L 38 0 
C 474 -7 646 0 832 0 
C 1018 19 1190 12 1626 0 
L 1626 192 
L 1338 211 
C 1120 223 1101 268 1101 670 
L 1101 2023 
C 1101 2311 1523 2624 1914 2624 
C 2342 2624 2624 2304 2624 1813 
L 2624 0 
z
" transform="scale(0.015625)"/>
       <path id="PazoMath-Italic-23" d="M 1971 2663 
L 1952 2243 
L 2131 2243 
C 2163 2529 2221 2695 2304 2924 
C 2093 3040 1779 3104 1562 3104 
C 1274 3104 1037 2988 774 2803 
C 582 2669 326 2389 326 2154 
C 326 1893 531 1721 890 1651 
C 742 1606 576 1497 365 1323 
C 154 1156 96 905 96 725 
C 96 500 173 371 262 256 
C 454 12 800 -64 1146 -64 
C 1466 -64 1824 102 2330 500 
L 2253 609 
C 1914 365 1606 256 1376 256 
C 1062 256 627 397 627 809 
C 627 1207 768 1535 1389 1535 
C 1549 1535 1683 1523 1792 1490 
C 1792 1529 1824 1683 1843 1728 
L 1830 1791 
C 1696 1747 1568 1728 1440 1728 
C 1050 1728 787 1899 787 2237 
C 787 2593 1146 2880 1510 2880 
C 1645 2880 1741 2854 1843 2809 
C 1939 2771 1965 2676 1971 2663 
z
" transform="scale(0.015625)"/>
      </defs>
      <use xlink:href="#URWPalladioL-Roma-73" transform="scale(0.996264)"/>
      <use xlink:href="#URWPalladioL-Roma-74" transform="translate(42.241466 0) scale(0.996264)"/>
      <use xlink:href="#URWPalladioL-Roma-72" transform="translate(74.718554 0) scale(0.996264)"/>
      <use xlink:href="#URWPalladioL-Roma-61" transform="translate(114.070451 0) scale(0.996264)"/>
      <use xlink:href="#URWPalladioL-Roma-69" transform="translate(163.883651 0) scale(0.996264)"/>
      <use xlink:href="#URWPalladioL-Roma-6e" transform="translate(192.874012 0) scale(0.996264)"/>
      <use xlink:href="#PazoMath-Italic-23" transform="translate(277.007973 0) scale(0.996264)"/>
     </g>
    </g>
   </g>
   <g id="matplotlib.axis_2">
    <g id="ytick_1">
     <g id="line2d_81">
      <path d="M 51.408712 462.0888 
L 703.710712 462.0888 
" clip-path="url(#p6759cb6d5d)" style="fill: none; stroke: #b0b0b0; stroke-width: 0.5; stroke-linecap: square"/>
     </g>
     <g id="line2d_82">
      <defs>
       <path id="m84c96889c1" d="M 0 0 
L 6 0 
" style="stroke: #000000"/>
      </defs>
      <g>
       <use xlink:href="#m84c96889c1" x="51.408712" y="462.0888" style="stroke: #000000"/>
      </g>
     </g>
     <g id="line2d_83">
      <defs>
       <path id="m9f5093b52a" d="M 0 0 
L -6 0 
" style="stroke: #000000"/>
      </defs>
      <g>
       <use xlink:href="#m9f5093b52a" x="703.710712" y="462.0888" style="stroke: #000000"/>
      </g>
     </g>
     <g id="text_10">
      <!-- $\mathdefault{20.0}$ -->
      <g transform="translate(23.500243 467.078565) scale(0.14 -0.14)">
       <use xlink:href="#URWPalladioL-Roma-32" transform="scale(0.996264)"/>
       <use xlink:href="#URWPalladioL-Roma-30" transform="translate(49.8132 0) scale(0.996264)"/>
       <use xlink:href="#URWPalladioL-Roma-2e" transform="translate(99.626401 0) scale(0.996264)"/>
       <use xlink:href="#URWPalladioL-Roma-30" transform="translate(124.533001 0) scale(0.996264)"/>
      </g>
     </g>
    </g>
    <g id="ytick_2">
     <g id="line2d_84">
      <path d="M 51.408712 402.074027 
L 703.710712 402.074027 
" clip-path="url(#p6759cb6d5d)" style="fill: none; stroke: #b0b0b0; stroke-width: 0.5; stroke-linecap: square"/>
     </g>
     <g id="line2d_85">
      <g>
       <use xlink:href="#m84c96889c1" x="51.408712" y="402.074027" style="stroke: #000000"/>
      </g>
     </g>
     <g id="line2d_86">
      <g>
       <use xlink:href="#m9f5093b52a" x="703.710712" y="402.074027" style="stroke: #000000"/>
      </g>
     </g>
     <g id="text_11">
      <!-- $\mathdefault{22.5}$ -->
      <g transform="translate(23.500243 407.063792) scale(0.14 -0.14)">
       <use xlink:href="#URWPalladioL-Roma-32" transform="scale(0.996264)"/>
       <use xlink:href="#URWPalladioL-Roma-32" transform="translate(49.8132 0) scale(0.996264)"/>
       <use xlink:href="#URWPalladioL-Roma-2e" transform="translate(99.626401 0) scale(0.996264)"/>
       <use xlink:href="#URWPalladioL-Roma-35" transform="translate(124.533001 0) scale(0.996264)"/>
      </g>
     </g>
    </g>
    <g id="ytick_3">
     <g id="line2d_87">
      <path d="M 51.408712 342.059254 
L 703.710712 342.059254 
" clip-path="url(#p6759cb6d5d)" style="fill: none; stroke: #b0b0b0; stroke-width: 0.5; stroke-linecap: square"/>
     </g>
     <g id="line2d_88">
      <g>
       <use xlink:href="#m84c96889c1" x="51.408712" y="342.059254" style="stroke: #000000"/>
      </g>
     </g>
     <g id="line2d_89">
      <g>
       <use xlink:href="#m9f5093b52a" x="703.710712" y="342.059254" style="stroke: #000000"/>
      </g>
     </g>
     <g id="text_12">
      <!-- $\mathdefault{25.0}$ -->
      <g transform="translate(23.500243 347.049019) scale(0.14 -0.14)">
       <use xlink:href="#URWPalladioL-Roma-32" transform="scale(0.996264)"/>
       <use xlink:href="#URWPalladioL-Roma-35" transform="translate(49.8132 0) scale(0.996264)"/>
       <use xlink:href="#URWPalladioL-Roma-2e" transform="translate(99.626401 0) scale(0.996264)"/>
       <use xlink:href="#URWPalladioL-Roma-30" transform="translate(124.533001 0) scale(0.996264)"/>
      </g>
     </g>
    </g>
    <g id="ytick_4">
     <g id="line2d_90">
      <path d="M 51.408712 282.044481 
L 703.710712 282.044481 
" clip-path="url(#p6759cb6d5d)" style="fill: none; stroke: #b0b0b0; stroke-width: 0.5; stroke-linecap: square"/>
     </g>
     <g id="line2d_91">
      <g>
       <use xlink:href="#m84c96889c1" x="51.408712" y="282.044481" style="stroke: #000000"/>
      </g>
     </g>
     <g id="line2d_92">
      <g>
       <use xlink:href="#m9f5093b52a" x="703.710712" y="282.044481" style="stroke: #000000"/>
      </g>
     </g>
     <g id="text_13">
      <!-- $\mathdefault{27.5}$ -->
      <g transform="translate(23.500243 287.034246) scale(0.14 -0.14)">
       <use xlink:href="#URWPalladioL-Roma-32" transform="scale(0.996264)"/>
       <use xlink:href="#URWPalladioL-Roma-37" transform="translate(49.8132 0) scale(0.996264)"/>
       <use xlink:href="#URWPalladioL-Roma-2e" transform="translate(99.626401 0) scale(0.996264)"/>
       <use xlink:href="#URWPalladioL-Roma-35" transform="translate(124.533001 0) scale(0.996264)"/>
      </g>
     </g>
    </g>
    <g id="ytick_5">
     <g id="line2d_93">
      <path d="M 51.408712 222.029708 
L 703.710712 222.029708 
" clip-path="url(#p6759cb6d5d)" style="fill: none; stroke: #b0b0b0; stroke-width: 0.5; stroke-linecap: square"/>
     </g>
     <g id="line2d_94">
      <g>
       <use xlink:href="#m84c96889c1" x="51.408712" y="222.029708" style="stroke: #000000"/>
      </g>
     </g>
     <g id="line2d_95">
      <g>
       <use xlink:href="#m9f5093b52a" x="703.710712" y="222.029708" style="stroke: #000000"/>
      </g>
     </g>
     <g id="text_14">
      <!-- $\mathdefault{30.0}$ -->
      <g transform="translate(23.500243 227.019473) scale(0.14 -0.14)">
       <use xlink:href="#URWPalladioL-Roma-33" transform="scale(0.996264)"/>
       <use xlink:href="#URWPalladioL-Roma-30" transform="translate(49.8132 0) scale(0.996264)"/>
       <use xlink:href="#URWPalladioL-Roma-2e" transform="translate(99.626401 0) scale(0.996264)"/>
       <use xlink:href="#URWPalladioL-Roma-30" transform="translate(124.533001 0) scale(0.996264)"/>
      </g>
     </g>
    </g>
    <g id="ytick_6">
     <g id="line2d_96">
      <path d="M 51.408712 162.014935 
L 703.710712 162.014935 
" clip-path="url(#p6759cb6d5d)" style="fill: none; stroke: #b0b0b0; stroke-width: 0.5; stroke-linecap: square"/>
     </g>
     <g id="line2d_97">
      <g>
       <use xlink:href="#m84c96889c1" x="51.408712" y="162.014935" style="stroke: #000000"/>
      </g>
     </g>
     <g id="line2d_98">
      <g>
       <use xlink:href="#m9f5093b52a" x="703.710712" y="162.014935" style="stroke: #000000"/>
      </g>
     </g>
     <g id="text_15">
      <!-- $\mathdefault{32.5}$ -->
      <g transform="translate(23.500243 167.0047) scale(0.14 -0.14)">
       <use xlink:href="#URWPalladioL-Roma-33" transform="scale(0.996264)"/>
       <use xlink:href="#URWPalladioL-Roma-32" transform="translate(49.8132 0) scale(0.996264)"/>
       <use xlink:href="#URWPalladioL-Roma-2e" transform="translate(99.626401 0) scale(0.996264)"/>
       <use xlink:href="#URWPalladioL-Roma-35" transform="translate(124.533001 0) scale(0.996264)"/>
      </g>
     </g>
    </g>
    <g id="ytick_7">
     <g id="line2d_99">
      <path d="M 51.408712 102.000162 
L 703.710712 102.000162 
" clip-path="url(#p6759cb6d5d)" style="fill: none; stroke: #b0b0b0; stroke-width: 0.5; stroke-linecap: square"/>
     </g>
     <g id="line2d_100">
      <g>
       <use xlink:href="#m84c96889c1" x="51.408712" y="102.000162" style="stroke: #000000"/>
      </g>
     </g>
     <g id="line2d_101">
      <g>
       <use xlink:href="#m9f5093b52a" x="703.710712" y="102.000162" style="stroke: #000000"/>
      </g>
     </g>
     <g id="text_16">
      <!-- $\mathdefault{35.0}$ -->
      <g transform="translate(23.500243 106.989926) scale(0.14 -0.14)">
       <use xlink:href="#URWPalladioL-Roma-33" transform="scale(0.996264)"/>
       <use xlink:href="#URWPalladioL-Roma-35" transform="translate(49.8132 0) scale(0.996264)"/>
       <use xlink:href="#URWPalladioL-Roma-2e" transform="translate(99.626401 0) scale(0.996264)"/>
       <use xlink:href="#URWPalladioL-Roma-30" transform="translate(124.533001 0) scale(0.996264)"/>
      </g>
     </g>
    </g>
    <g id="ytick_8">
     <g id="line2d_102">
      <path d="M 51.408712 41.985389 
L 703.710712 41.985389 
" clip-path="url(#p6759cb6d5d)" style="fill: none; stroke: #b0b0b0; stroke-width: 0.5; stroke-linecap: square"/>
     </g>
     <g id="line2d_103">
      <g>
       <use xlink:href="#m84c96889c1" x="51.408712" y="41.985389" style="stroke: #000000"/>
      </g>
     </g>
     <g id="line2d_104">
      <g>
       <use xlink:href="#m9f5093b52a" x="703.710712" y="41.985389" style="stroke: #000000"/>
      </g>
     </g>
     <g id="text_17">
      <!-- $\mathdefault{37.5}$ -->
      <g transform="translate(23.500243 46.975153) scale(0.14 -0.14)">
       <use xlink:href="#URWPalladioL-Roma-33" transform="scale(0.996264)"/>
       <use xlink:href="#URWPalladioL-Roma-37" transform="translate(49.8132 0) scale(0.996264)"/>
       <use xlink:href="#URWPalladioL-Roma-2e" transform="translate(99.626401 0) scale(0.996264)"/>
       <use xlink:href="#URWPalladioL-Roma-35" transform="translate(124.533001 0) scale(0.996264)"/>
      </g>
     </g>
    </g>
    <g id="ytick_9">
     <g id="line2d_105">
      <defs>
       <path id="m4fbd7af814" d="M 0 0 
L 3 0 
" style="stroke: #000000; stroke-width: 0.5"/>
      </defs>
      <g>
       <use xlink:href="#m4fbd7af814" x="51.408712" y="450.085845" style="stroke: #000000; stroke-width: 0.5"/>
      </g>
     </g>
     <g id="line2d_106">
      <defs>
       <path id="m794806adeb" d="M 0 0 
L -3 0 
" style="stroke: #000000; stroke-width: 0.5"/>
      </defs>
      <g>
       <use xlink:href="#m794806adeb" x="703.710712" y="450.085845" style="stroke: #000000; stroke-width: 0.5"/>
      </g>
     </g>
    </g>
    <g id="ytick_10">
     <g id="line2d_107">
      <g>
       <use xlink:href="#m4fbd7af814" x="51.408712" y="438.082891" style="stroke: #000000; stroke-width: 0.5"/>
      </g>
     </g>
     <g id="line2d_108">
      <g>
       <use xlink:href="#m794806adeb" x="703.710712" y="438.082891" style="stroke: #000000; stroke-width: 0.5"/>
      </g>
     </g>
    </g>
    <g id="ytick_11">
     <g id="line2d_109">
      <g>
       <use xlink:href="#m4fbd7af814" x="51.408712" y="426.079936" style="stroke: #000000; stroke-width: 0.5"/>
      </g>
     </g>
     <g id="line2d_110">
      <g>
       <use xlink:href="#m794806adeb" x="703.710712" y="426.079936" style="stroke: #000000; stroke-width: 0.5"/>
      </g>
     </g>
    </g>
    <g id="ytick_12">
     <g id="line2d_111">
      <g>
       <use xlink:href="#m4fbd7af814" x="51.408712" y="414.076982" style="stroke: #000000; stroke-width: 0.5"/>
      </g>
     </g>
     <g id="line2d_112">
      <g>
       <use xlink:href="#m794806adeb" x="703.710712" y="414.076982" style="stroke: #000000; stroke-width: 0.5"/>
      </g>
     </g>
    </g>
    <g id="ytick_13">
     <g id="line2d_113">
      <g>
       <use xlink:href="#m4fbd7af814" x="51.408712" y="390.071072" style="stroke: #000000; stroke-width: 0.5"/>
      </g>
     </g>
     <g id="line2d_114">
      <g>
       <use xlink:href="#m794806adeb" x="703.710712" y="390.071072" style="stroke: #000000; stroke-width: 0.5"/>
      </g>
     </g>
    </g>
    <g id="ytick_14">
     <g id="line2d_115">
      <g>
       <use xlink:href="#m4fbd7af814" x="51.408712" y="378.068118" style="stroke: #000000; stroke-width: 0.5"/>
      </g>
     </g>
     <g id="line2d_116">
      <g>
       <use xlink:href="#m794806adeb" x="703.710712" y="378.068118" style="stroke: #000000; stroke-width: 0.5"/>
      </g>
     </g>
    </g>
    <g id="ytick_15">
     <g id="line2d_117">
      <g>
       <use xlink:href="#m4fbd7af814" x="51.408712" y="366.065163" style="stroke: #000000; stroke-width: 0.5"/>
      </g>
     </g>
     <g id="line2d_118">
      <g>
       <use xlink:href="#m794806adeb" x="703.710712" y="366.065163" style="stroke: #000000; stroke-width: 0.5"/>
      </g>
     </g>
    </g>
    <g id="ytick_16">
     <g id="line2d_119">
      <g>
       <use xlink:href="#m4fbd7af814" x="51.408712" y="354.062209" style="stroke: #000000; stroke-width: 0.5"/>
      </g>
     </g>
     <g id="line2d_120">
      <g>
       <use xlink:href="#m794806adeb" x="703.710712" y="354.062209" style="stroke: #000000; stroke-width: 0.5"/>
      </g>
     </g>
    </g>
    <g id="ytick_17">
     <g id="line2d_121">
      <g>
       <use xlink:href="#m4fbd7af814" x="51.408712" y="330.056299" style="stroke: #000000; stroke-width: 0.5"/>
      </g>
     </g>
     <g id="line2d_122">
      <g>
       <use xlink:href="#m794806adeb" x="703.710712" y="330.056299" style="stroke: #000000; stroke-width: 0.5"/>
      </g>
     </g>
    </g>
    <g id="ytick_18">
     <g id="line2d_123">
      <g>
       <use xlink:href="#m4fbd7af814" x="51.408712" y="318.053345" style="stroke: #000000; stroke-width: 0.5"/>
      </g>
     </g>
     <g id="line2d_124">
      <g>
       <use xlink:href="#m794806adeb" x="703.710712" y="318.053345" style="stroke: #000000; stroke-width: 0.5"/>
      </g>
     </g>
    </g>
    <g id="ytick_19">
     <g id="line2d_125">
      <g>
       <use xlink:href="#m4fbd7af814" x="51.408712" y="306.05039" style="stroke: #000000; stroke-width: 0.5"/>
      </g>
     </g>
     <g id="line2d_126">
      <g>
       <use xlink:href="#m794806adeb" x="703.710712" y="306.05039" style="stroke: #000000; stroke-width: 0.5"/>
      </g>
     </g>
    </g>
    <g id="ytick_20">
     <g id="line2d_127">
      <g>
       <use xlink:href="#m4fbd7af814" x="51.408712" y="294.047436" style="stroke: #000000; stroke-width: 0.5"/>
      </g>
     </g>
     <g id="line2d_128">
      <g>
       <use xlink:href="#m794806adeb" x="703.710712" y="294.047436" style="stroke: #000000; stroke-width: 0.5"/>
      </g>
     </g>
    </g>
    <g id="ytick_21">
     <g id="line2d_129">
      <g>
       <use xlink:href="#m4fbd7af814" x="51.408712" y="270.041526" style="stroke: #000000; stroke-width: 0.5"/>
      </g>
     </g>
     <g id="line2d_130">
      <g>
       <use xlink:href="#m794806adeb" x="703.710712" y="270.041526" style="stroke: #000000; stroke-width: 0.5"/>
      </g>
     </g>
    </g>
    <g id="ytick_22">
     <g id="line2d_131">
      <g>
       <use xlink:href="#m4fbd7af814" x="51.408712" y="258.038572" style="stroke: #000000; stroke-width: 0.5"/>
      </g>
     </g>
     <g id="line2d_132">
      <g>
       <use xlink:href="#m794806adeb" x="703.710712" y="258.038572" style="stroke: #000000; stroke-width: 0.5"/>
      </g>
     </g>
    </g>
    <g id="ytick_23">
     <g id="line2d_133">
      <g>
       <use xlink:href="#m4fbd7af814" x="51.408712" y="246.035617" style="stroke: #000000; stroke-width: 0.5"/>
      </g>
     </g>
     <g id="line2d_134">
      <g>
       <use xlink:href="#m794806adeb" x="703.710712" y="246.035617" style="stroke: #000000; stroke-width: 0.5"/>
      </g>
     </g>
    </g>
    <g id="ytick_24">
     <g id="line2d_135">
      <g>
       <use xlink:href="#m4fbd7af814" x="51.408712" y="234.032662" style="stroke: #000000; stroke-width: 0.5"/>
      </g>
     </g>
     <g id="line2d_136">
      <g>
       <use xlink:href="#m794806adeb" x="703.710712" y="234.032662" style="stroke: #000000; stroke-width: 0.5"/>
      </g>
     </g>
    </g>
    <g id="ytick_25">
     <g id="line2d_137">
      <g>
       <use xlink:href="#m4fbd7af814" x="51.408712" y="210.026753" style="stroke: #000000; stroke-width: 0.5"/>
      </g>
     </g>
     <g id="line2d_138">
      <g>
       <use xlink:href="#m794806adeb" x="703.710712" y="210.026753" style="stroke: #000000; stroke-width: 0.5"/>
      </g>
     </g>
    </g>
    <g id="ytick_26">
     <g id="line2d_139">
      <g>
       <use xlink:href="#m4fbd7af814" x="51.408712" y="198.023799" style="stroke: #000000; stroke-width: 0.5"/>
      </g>
     </g>
     <g id="line2d_140">
      <g>
       <use xlink:href="#m794806adeb" x="703.710712" y="198.023799" style="stroke: #000000; stroke-width: 0.5"/>
      </g>
     </g>
    </g>
    <g id="ytick_27">
     <g id="line2d_141">
      <g>
       <use xlink:href="#m4fbd7af814" x="51.408712" y="186.020844" style="stroke: #000000; stroke-width: 0.5"/>
      </g>
     </g>
     <g id="line2d_142">
      <g>
       <use xlink:href="#m794806adeb" x="703.710712" y="186.020844" style="stroke: #000000; stroke-width: 0.5"/>
      </g>
     </g>
    </g>
    <g id="ytick_28">
     <g id="line2d_143">
      <g>
       <use xlink:href="#m4fbd7af814" x="51.408712" y="174.017889" style="stroke: #000000; stroke-width: 0.5"/>
      </g>
     </g>
     <g id="line2d_144">
      <g>
       <use xlink:href="#m794806adeb" x="703.710712" y="174.017889" style="stroke: #000000; stroke-width: 0.5"/>
      </g>
     </g>
    </g>
    <g id="ytick_29">
     <g id="line2d_145">
      <g>
       <use xlink:href="#m4fbd7af814" x="51.408712" y="150.01198" style="stroke: #000000; stroke-width: 0.5"/>
      </g>
     </g>
     <g id="line2d_146">
      <g>
       <use xlink:href="#m794806adeb" x="703.710712" y="150.01198" style="stroke: #000000; stroke-width: 0.5"/>
      </g>
     </g>
    </g>
    <g id="ytick_30">
     <g id="line2d_147">
      <g>
       <use xlink:href="#m4fbd7af814" x="51.408712" y="138.009026" style="stroke: #000000; stroke-width: 0.5"/>
      </g>
     </g>
     <g id="line2d_148">
      <g>
       <use xlink:href="#m794806adeb" x="703.710712" y="138.009026" style="stroke: #000000; stroke-width: 0.5"/>
      </g>
     </g>
    </g>
    <g id="ytick_31">
     <g id="line2d_149">
      <g>
       <use xlink:href="#m4fbd7af814" x="51.408712" y="126.006071" style="stroke: #000000; stroke-width: 0.5"/>
      </g>
     </g>
     <g id="line2d_150">
      <g>
       <use xlink:href="#m794806adeb" x="703.710712" y="126.006071" style="stroke: #000000; stroke-width: 0.5"/>
      </g>
     </g>
    </g>
    <g id="ytick_32">
     <g id="line2d_151">
      <g>
       <use xlink:href="#m4fbd7af814" x="51.408712" y="114.003116" style="stroke: #000000; stroke-width: 0.5"/>
      </g>
     </g>
     <g id="line2d_152">
      <g>
       <use xlink:href="#m794806adeb" x="703.710712" y="114.003116" style="stroke: #000000; stroke-width: 0.5"/>
      </g>
     </g>
    </g>
    <g id="ytick_33">
     <g id="line2d_153">
      <g>
       <use xlink:href="#m4fbd7af814" x="51.408712" y="89.997207" style="stroke: #000000; stroke-width: 0.5"/>
      </g>
     </g>
     <g id="line2d_154">
      <g>
       <use xlink:href="#m794806adeb" x="703.710712" y="89.997207" style="stroke: #000000; stroke-width: 0.5"/>
      </g>
     </g>
    </g>
    <g id="ytick_34">
     <g id="line2d_155">
      <g>
       <use xlink:href="#m4fbd7af814" x="51.408712" y="77.994253" style="stroke: #000000; stroke-width: 0.5"/>
      </g>
     </g>
     <g id="line2d_156">
      <g>
       <use xlink:href="#m794806adeb" x="703.710712" y="77.994253" style="stroke: #000000; stroke-width: 0.5"/>
      </g>
     </g>
    </g>
    <g id="ytick_35">
     <g id="line2d_157">
      <g>
       <use xlink:href="#m4fbd7af814" x="51.408712" y="65.991298" style="stroke: #000000; stroke-width: 0.5"/>
      </g>
     </g>
     <g id="line2d_158">
      <g>
       <use xlink:href="#m794806adeb" x="703.710712" y="65.991298" style="stroke: #000000; stroke-width: 0.5"/>
      </g>
     </g>
    </g>
    <g id="ytick_36">
     <g id="line2d_159">
      <g>
       <use xlink:href="#m4fbd7af814" x="51.408712" y="53.988343" style="stroke: #000000; stroke-width: 0.5"/>
      </g>
     </g>
     <g id="line2d_160">
      <g>
       <use xlink:href="#m794806adeb" x="703.710712" y="53.988343" style="stroke: #000000; stroke-width: 0.5"/>
      </g>
     </g>
    </g>
    <g id="ytick_37">
     <g id="line2d_161">
      <g>
       <use xlink:href="#m4fbd7af814" x="51.408712" y="29.982434" style="stroke: #000000; stroke-width: 0.5"/>
      </g>
     </g>
     <g id="line2d_162">
      <g>
       <use xlink:href="#m794806adeb" x="703.710712" y="29.982434" style="stroke: #000000; stroke-width: 0.5"/>
      </g>
     </g>
    </g>
    <g id="ytick_38">
     <g id="line2d_163">
      <g>
       <use xlink:href="#m4fbd7af814" x="51.408712" y="17.97948" style="stroke: #000000; stroke-width: 0.5"/>
      </g>
     </g>
     <g id="line2d_164">
      <g>
       <use xlink:href="#m794806adeb" x="703.710712" y="17.97948" style="stroke: #000000; stroke-width: 0.5"/>
      </g>
     </g>
    </g>
    <g id="ytick_39">
     <g id="line2d_165">
      <g>
       <use xlink:href="#m4fbd7af814" x="51.408712" y="5.976525" style="stroke: #000000; stroke-width: 0.5"/>
      </g>
     </g>
     <g id="line2d_166">
      <g>
       <use xlink:href="#m794806adeb" x="703.710712" y="5.976525" style="stroke: #000000; stroke-width: 0.5"/>
      </g>
     </g>
    </g>
    <g id="text_18">
     <!-- von Mises stress $\sigma$ (MPa) -->
     <g transform="translate(15.005183 320.674385) rotate(-90) scale(0.16 -0.16)">
      <defs>
       <path id="URWPalladioL-Roma-76" d="M 3450 2739 
L 3450 2918 
C 3066 2905 2950 2899 2848 2899 
C 2746 2899 2630 2905 2246 2918 
L 2246 2739 
L 2509 2726 
C 2611 2720 2662 2662 2662 2560 
C 2662 2457 2618 2284 2541 2092 
L 2272 1414 
C 2195 1228 2118 1049 1875 518 
L 1114 2361 
C 1075 2451 1056 2534 1056 2604 
C 1056 2675 1114 2720 1216 2726 
L 1530 2739 
L 1530 2918 
C 902 2899 902 2899 781 2899 
C 659 2899 352 2905 38 2918 
L 38 2739 
L 256 2726 
C 352 2713 384 2675 454 2515 
L 1555 -64 
L 1875 -64 
C 1914 44 1978 211 1978 224 
C 2048 416 2131 633 2138 633 
L 2893 2297 
C 3034 2598 3123 2713 3251 2726 
L 3450 2739 
z
" transform="scale(0.015625)"/>
       <path id="URWPalladioL-Roma-6f" d="M 1786 3008 
C 851 3008 205 2347 205 1391 
C 205 487 774 -128 1600 -128 
C 2586 -128 3290 557 3290 1520 
C 3290 2386 2662 3008 1786 3008 
z
M 1670 2796 
C 2259 2796 2694 2155 2694 1282 
C 2694 545 2368 83 1850 83 
C 1222 83 800 699 800 1609 
C 800 2379 1107 2796 1670 2796 
z
" transform="scale(0.015625)"/>
       <path id="URWPalladioL-Roma-4d" d="M 4685 787 
C 4685 281 4659 236 4358 211 
L 4141 192 
L 4141 0 
C 4435 -7 4627 0 4960 0 
C 5318 19 5549 12 5926 0 
L 5926 192 
L 5619 211 
C 5325 230 5293 280 5293 782 
L 5293 3633 
C 5293 4128 5325 4185 5619 4204 
L 5888 4223 
L 5888 4416 
C 5402 4396 5402 4396 5293 4396 
C 5197 4396 5197 4396 4685 4416 
L 3008 884 
L 1318 4416 
C 806 4396 806 4396 710 4396 
C 614 4396 614 4396 102 4416 
L 102 4223 
L 384 4204 
C 678 4185 710 4128 710 3633 
L 710 782 
C 710 287 678 230 384 211 
L 102 192 
L 102 0 
C 736 0 736 0 845 0 
C 941 19 941 19 1613 0 
L 1613 192 
L 1331 211 
C 1037 230 1005 288 1005 787 
L 1005 3718 
L 2790 -64 
L 2918 -64 
C 2963 32 3002 134 3040 230 
C 3142 480 3219 659 3264 748 
L 4403 3168 
C 4493 3353 4570 3501 4685 3718 
L 4685 787 
z
" transform="scale(0.015625)"/>
       <path id="URWPalladioL-Roma-65" d="M 2797 447 
L 2714 511 
C 2304 268 2157 211 1882 211 
C 1466 211 1120 396 941 710 
C 819 921 774 1100 762 1472 
L 1696 1472 
C 2138 1472 2413 1491 2854 1561 
C 2861 1651 2867 1708 2867 1786 
C 2867 2526 2394 3008 1677 3008 
C 1440 3008 1165 2924 902 2771 
C 378 2468 166 2069 166 1401 
C 166 998 262 652 435 409 
C 691 70 1120 -128 1600 -128 
C 1837 -128 2074 -77 2336 38 
C 2509 108 2643 192 2669 230 
L 2797 447 
z
M 2298 1708 
C 1965 1696 1811 1689 1581 1689 
C 1286 1689 1120 1696 774 1728 
C 774 2030 800 2172 883 2339 
C 1018 2623 1293 2796 1600 2796 
C 1811 2796 1978 2713 2093 2539 
C 2234 2326 2278 2140 2298 1708 
z
" transform="scale(0.015625)"/>
       <path id="PazoMath-Italic-73" d="M 3718 3148 
C 3546 3091 3251 3046 3040 3046 
C 2854 3046 2534 3046 2362 3052 
C 2163 3059 1939 3072 1786 3072 
C 1504 3072 1235 2975 954 2784 
C 410 2415 109 1767 109 973 
C 109 179 403 -64 819 -64 
C 1101 -64 1363 64 1670 351 
C 1946 611 2227 1011 2413 1412 
C 2573 1748 2688 2180 2688 2447 
C 2688 2530 2675 2606 2656 2676 
C 2867 2663 3046 2663 3187 2663 
C 3302 2663 3443 2714 3546 2752 
C 3616 2886 3642 2918 3763 3072 
L 3718 3148 
z
M 1536 2828 
C 1926 2828 2272 2765 2272 2269 
C 2272 1323 1651 256 1088 256 
C 774 256 595 548 595 967 
C 595 1723 851 2473 1158 2720 
C 1242 2790 1382 2828 1536 2828 
z
" transform="scale(0.015625)"/>
       <path id="URWPalladioL-Roma-28" d="M 1926 -1242 
C 1466 -673 1299 -365 1133 211 
C 998 672 934 1158 934 1702 
C 934 2233 998 2688 1120 3104 
C 1286 3635 1459 3936 1926 4480 
L 1805 4646 
C 1139 4051 877 3699 634 3072 
C 467 2643 384 2188 384 1702 
C 384 1017 544 371 851 -205 
C 1075 -634 1280 -884 1805 -1377 
L 1926 -1242 
z
" transform="scale(0.015625)"/>
       <path id="URWPalladioL-Roma-50" d="M 1382 4097 
C 1606 4147 1792 4172 2010 4172 
C 2701 4172 3072 3859 3072 3263 
C 3072 2699 2682 2304 2125 2304 
C 1990 2304 1894 2316 1728 2366 
L 1792 2137 
C 1946 2105 2035 2099 2163 2099 
C 3040 2099 3712 2686 3712 3439 
C 3712 4041 3213 4416 2400 4416 
C 2368 4416 2304 4416 2221 4409 
C 1984 4403 1498 4396 1312 4396 
C 1171 4396 1171 4396 147 4416 
L 147 4223 
L 435 4204 
C 723 4185 774 4103 774 3633 
L 774 782 
C 774 280 742 230 448 211 
L 141 192 
L 141 0 
C 518 -7 742 0 1075 0 
C 1408 19 1638 12 2016 0 
L 2016 192 
L 1709 211 
C 1414 230 1382 281 1382 787 
L 1382 4097 
z
" transform="scale(0.015625)"/>
       <path id="URWPalladioL-Roma-29" d="M 326 -1377 
C 768 -961 954 -749 1152 -436 
C 1542 185 1747 928 1747 1696 
C 1747 2188 1664 2643 1498 3072 
C 1254 3693 992 4045 326 4646 
L 205 4480 
C 672 3929 845 3629 1005 3104 
C 1133 2688 1197 2233 1197 1702 
C 1197 1158 1133 672 998 211 
C 832 -365 666 -673 205 -1242 
L 326 -1377 
z
" transform="scale(0.015625)"/>
      </defs>
      <use xlink:href="#URWPalladioL-Roma-76" transform="scale(0.996264)"/>
      <use xlink:href="#URWPalladioL-Roma-6f" transform="translate(56.287913 0) scale(0.996264)"/>
      <use xlink:href="#URWPalladioL-Roma-6e" transform="translate(110.683493 0) scale(0.996264)"/>
      <use xlink:href="#URWPalladioL-Roma-4d" transform="translate(193.572154 0) scale(0.996264)"/>
      <use xlink:href="#URWPalladioL-Roma-69" transform="translate(287.818356 0) scale(0.996264)"/>
      <use xlink:href="#URWPalladioL-Roma-73" transform="translate(316.808717 0) scale(0.996264)"/>
      <use xlink:href="#URWPalladioL-Roma-65" transform="translate(359.050184 0) scale(0.996264)"/>
      <use xlink:href="#URWPalladioL-Roma-73" transform="translate(406.770479 0) scale(0.996264)"/>
      <use xlink:href="#URWPalladioL-Roma-73" transform="translate(473.918545 0) scale(0.996264)"/>
      <use xlink:href="#URWPalladioL-Roma-74" transform="translate(516.160012 0) scale(0.996264)"/>
      <use xlink:href="#URWPalladioL-Roma-72" transform="translate(548.637099 0) scale(0.996264)"/>
      <use xlink:href="#URWPalladioL-Roma-65" transform="translate(586.196417 0) scale(0.996264)"/>
      <use xlink:href="#URWPalladioL-Roma-73" transform="translate(633.916712 0) scale(0.996264)"/>
      <use xlink:href="#URWPalladioL-Roma-73" transform="translate(676.158178 0) scale(0.996264)"/>
      <use xlink:href="#PazoMath-Italic-73" transform="translate(744.551544 0) scale(0.996264)"/>
      <use xlink:href="#URWPalladioL-Roma-28" transform="translate(827.291228 0) scale(0.996264)"/>
      <use xlink:href="#URWPalladioL-Roma-4d" transform="translate(860.466458 0) scale(0.996264)"/>
      <use xlink:href="#URWPalladioL-Roma-50" transform="translate(954.712659 0) scale(0.996264)"/>
      <use xlink:href="#URWPalladioL-Roma-61" transform="translate(1014.886254 0) scale(0.996264)"/>
      <use xlink:href="#URWPalladioL-Roma-29" transform="translate(1064.699455 0) scale(0.996264)"/>
     </g>
    </g>
   </g>
   <g id="line2d_167">
    <path d="M 56.595796 504.001745 
L 56.999872 497.607703 
L 57.931732 485.562018 
L 61.659172 444.663871 
L 62.591032 434.946519 
L 72.841492 361.111064 
L 75.637072 342.821682 
L 77.500792 331.040302 
L 78.432652 326.761008 
L 79.364512 321.249251 
L 80.296372 316.875615 
L 81.228232 313.278569 
L 84.023812 304.664049 
L 84.955672 300.575602 
L 89.614972 277.310756 
L 96.137992 249.118216 
L 97.069852 244.763784 
L 98.001712 239.758312 
L 99.865432 231.313273 
L 102.661012 222.468776 
L 105.456592 215.524106 
L 106.388452 212.148396 
L 107.320312 209.385315 
L 111.047752 194.961365 
L 111.979612 192.230693 
L 113.843332 184.357715 
L 114.775192 181.044419 
L 115.707052 178.268376 
L 118.502632 171.165747 
L 119.434492 169.381148 
L 120.366352 167.299836 
L 121.298212 164.7989 
L 124.093792 158.682194 
L 125.025652 156.99746 
L 126.889372 154.366652 
L 129.684952 148.637642 
L 130.616812 146.411574 
L 131.548672 143.842942 
L 132.480532 142.13108 
L 134.344252 138.18715 
L 135.276112 136.6042 
L 136.207972 135.298038 
L 138.071692 130.708349 
L 139.003552 127.946949 
L 141.799132 117.843342 
L 142.730992 115.228858 
L 143.662852 113.385204 
L 144.594712 112.011586 
L 145.526572 110.944043 
L 146.458432 110.202981 
L 147.390292 109.648925 
L 149.254012 108.941711 
L 150.185872 108.362448 
L 151.117732 107.447343 
L 152.049592 105.924888 
L 153.913312 100.40641 
L 156.708892 91.129566 
L 158.572612 87.274457 
L 159.504472 86.089525 
L 160.436332 85.147533 
L 161.368192 83.886743 
L 162.300052 82.920265 
L 164.163772 79.64754 
L 165.095632 78.418437 
L 169.754932 70.415107 
L 170.686792 69.114467 
L 172.550512 67.1359 
L 177.209812 63.362891 
L 178.141672 62.399774 
L 179.073532 61.275097 
L 181.869112 56.90098 
L 182.800972 55.426297 
L 186.528412 48.608139 
L 188.392132 45.97301 
L 189.323992 44.99669 
L 191.187712 43.449269 
L 193.051432 42.592018 
L 193.983292 42.312829 
L 196.778872 41.962343 
L 198.642592 41.737168 
L 199.574452 41.446456 
L 200.506312 40.995865 
L 201.438172 40.148457 
L 202.370032 38.791643 
L 203.301892 37.687611 
L 204.233752 35.573651 
L 205.165612 33.86395 
L 206.097472 32.796647 
L 207.029332 31.962922 
L 207.961192 32.011894 
L 208.893052 32.538103 
L 210.756772 34.470339 
L 211.688632 35.020314 
L 212.620492 35.211881 
L 213.552352 34.83955 
L 216.347932 32.087752 
L 217.279792 31.51041 
L 218.211652 31.286195 
L 219.143512 31.397342 
L 221.007232 31.971804 
L 223.802812 33.13561 
L 227.530252 36.252058 
L 228.462112 37.438189 
L 229.393972 38.21382 
L 230.325832 38.716024 
L 231.257692 39.077793 
L 232.189552 38.930397 
L 233.121412 38.465882 
L 235.916992 35.751054 
L 236.848852 35.273817 
L 237.780712 35.394566 
L 238.712572 36.242215 
L 240.576292 39.723792 
L 242.440012 44.22658 
L 243.371872 46.166738 
L 244.303732 47.258527 
L 245.235592 47.772973 
L 246.167452 47.868757 
L 247.099312 47.574685 
L 248.031172 47.138497 
L 248.963032 46.913802 
L 249.894892 47.206674 
L 250.826752 47.973423 
L 251.758612 48.915655 
L 253.622332 51.750753 
L 255.486052 53.716116 
L 256.417912 54.517914 
L 257.349772 55.15167 
L 258.281632 56.206249 
L 259.213492 57.026531 
L 262.009072 59.997503 
L 262.940932 60.892443 
L 263.872792 61.486109 
L 264.804652 61.791464 
L 265.736512 61.913654 
L 267.600232 61.767698 
L 268.532092 62.000796 
L 269.463952 62.535167 
L 270.395812 63.653603 
L 271.327672 65.097798 
L 273.191392 67.150543 
L 274.123252 67.766055 
L 275.055112 67.923294 
L 276.918832 67.892086 
L 277.850692 67.998432 
L 279.714412 68.642751 
L 281.578132 69.265464 
L 282.509992 69.446228 
L 283.441852 69.741501 
L 284.373712 70.212257 
L 285.305572 70.963882 
L 286.237432 72.17258 
L 289.964872 78.929523 
L 290.896732 79.967778 
L 291.828592 80.539839 
L 292.760452 80.686995 
L 294.624172 80.615218 
L 295.556032 80.937137 
L 296.487892 81.677479 
L 299.283472 84.542344 
L 303.010912 86.608053 
L 303.942772 87.424494 
L 306.738352 90.261752 
L 307.670212 90.929837 
L 308.602072 91.42988 
L 310.465792 91.852144 
L 312.329512 92.102285 
L 316.988812 93.142461 
L 317.920672 93.198155 
L 318.852532 93.408687 
L 319.784392 94.038122 
L 320.716252 95.051891 
L 321.648112 96.272592 
L 324.443692 101.957911 
L 326.307412 104.645853 
L 327.239272 105.041711 
L 328.171132 104.885672 
L 329.102992 104.489095 
L 330.034852 103.948481 
L 330.966712 103.600396 
L 331.898572 103.53582 
L 333.762292 104.51118 
L 334.694152 105.761408 
L 335.626012 106.739648 
L 336.557872 108.124309 
L 337.489732 109.091988 
L 338.421592 110.24019 
L 339.353452 110.991335 
L 340.285312 111.409278 
L 341.217172 111.550913 
L 342.149032 111.276765 
L 343.080892 110.837937 
L 344.012752 109.643643 
L 345.876472 107.873448 
L 346.808332 107.125904 
L 347.740192 106.845515 
L 348.672052 107.178477 
L 349.603912 108.064535 
L 351.467632 111.477935 
L 353.331352 115.219736 
L 354.263212 116.557825 
L 355.195072 117.586479 
L 356.126932 118.349146 
L 358.922512 119.829831 
L 360.786232 120.526962 
L 361.718092 120.444622 
L 362.649952 120.182478 
L 363.581812 119.411888 
L 365.445532 117.500297 
L 366.377392 117.175977 
L 367.309252 117.310891 
L 368.241112 117.79485 
L 369.172972 118.593286 
L 371.036692 121.010441 
L 372.900412 123.188978 
L 373.832272 124.136491 
L 374.764132 124.82306 
L 375.695992 125.262608 
L 376.627852 125.476501 
L 377.559712 125.436891 
L 380.355292 124.835543 
L 381.287152 124.829061 
L 382.219012 125.111611 
L 384.082732 126.298703 
L 386.878312 128.541575 
L 387.810172 128.916547 
L 388.742032 129.08867 
L 389.673892 129.020493 
L 391.537612 128.613593 
L 392.469472 128.607351 
L 393.401332 128.921109 
L 394.333192 129.709703 
L 395.265052 130.710749 
L 397.128772 133.235211 
L 398.060632 134.242499 
L 398.992492 135.048617 
L 399.924352 135.474962 
L 400.856212 135.593071 
L 401.788072 135.453357 
L 402.719932 135.073823 
L 403.651792 134.5721 
L 404.583652 134.239618 
L 405.515512 134.065815 
L 406.447372 134.163999 
L 410.174812 135.424549 
L 412.038532 135.240424 
L 412.970392 135.133838 
L 413.902252 135.172247 
L 415.765972 135.689095 
L 416.697832 136.07511 
L 418.561552 136.595798 
L 419.493412 137.008219 
L 421.357132 138.699676 
L 422.288992 139.626304 
L 423.220852 140.901018 
L 424.152712 141.891741 
L 426.016432 142.923035 
L 427.880152 143.507339 
L 429.743872 144.021306 
L 432.539452 144.637297 
L 433.471312 145.045638 
L 434.403172 145.677473 
L 435.335032 146.580095 
L 437.198752 149.139606 
L 439.062472 150.397755 
L 439.994332 150.513224 
L 440.926192 150.265003 
L 442.789912 149.040221 
L 443.721772 148.347891 
L 444.653632 147.886017 
L 445.585492 147.638036 
L 446.517352 147.727338 
L 447.449212 148.162805 
L 448.381072 148.842172 
L 450.244792 150.559795 
L 451.176652 151.520992 
L 452.108512 151.976624 
L 453.040372 152.086571 
L 454.904092 151.915409 
L 455.835952 152.059204 
L 456.767812 152.537402 
L 457.699672 153.271743 
L 458.631532 154.368573 
L 460.495252 156.217268 
L 461.427112 156.724032 
L 462.358972 156.736275 
L 463.290832 156.502218 
L 465.154552 155.746272 
L 466.086412 155.672574 
L 467.950132 155.988251 
L 471.677572 157.052673 
L 472.609432 157.425005 
L 475.405012 159.003634 
L 477.268732 160.505203 
L 479.132452 162.206502 
L 480.064312 163.054151 
L 480.996172 163.527787 
L 481.928032 163.546992 
L 482.859892 163.013581 
L 483.791752 162.254754 
L 484.723612 161.336528 
L 486.587332 160.131671 
L 487.519192 160.020764 
L 492.178492 160.455031 
L 494.042212 160.820641 
L 494.974072 161.092388 
L 495.905932 161.239064 
L 496.837792 161.200414 
L 499.633372 160.651159 
L 502.428952 160.434866 
L 504.292672 160.562817 
L 505.224532 160.913544 
L 507.088252 162.553868 
L 508.020112 163.593804 
L 509.883832 166.169638 
L 510.815692 166.883093 
L 511.747552 167.424907 
L 513.611272 167.710577 
L 515.474992 167.751867 
L 516.406852 167.636879 
L 517.338712 167.369213 
L 518.270572 166.867729 
L 519.202432 165.887808 
L 521.998012 163.688867 
L 522.929872 163.444247 
L 524.793592 163.572198 
L 528.521032 163.802895 
L 530.384752 163.665581 
L 531.316612 163.694628 
L 533.180332 164.10657 
L 534.112192 164.692314 
L 535.044052 165.551966 
L 535.975912 166.092339 
L 536.907772 166.314393 
L 537.839632 166.406576 
L 538.771492 166.205166 
L 540.635212 165.49003 
L 541.567072 165.438658 
L 543.430792 165.753135 
L 545.294512 166.526365 
L 546.226372 166.661999 
L 547.158232 166.497558 
L 548.090092 165.989593 
L 550.885672 163.544831 
L 551.817532 163.045509 
L 552.749392 163.027024 
L 553.681252 163.474974 
L 555.544972 164.794579 
L 556.476832 165.411291 
L 557.408692 165.386805 
L 558.340552 164.895164 
L 561.136132 161.38406 
L 562.067992 160.528009 
L 562.999852 160.33044 
L 563.931712 160.555376 
L 565.795432 161.855536 
L 566.727292 162.140486 
L 567.659152 162.140726 
L 568.591012 161.728064 
L 569.522872 161.011248 
L 570.454732 160.149916 
L 571.386592 159.786226 
L 572.318452 159.850322 
L 573.250312 160.449029 
L 574.182172 161.463759 
L 575.114032 163.158576 
L 576.045892 164.438571 
L 577.909612 166.205886 
L 578.841472 166.473072 
L 579.773332 166.222451 
L 580.705192 165.779782 
L 581.637052 165.158029 
L 583.500772 164.340387 
L 585.364492 163.882595 
L 587.228212 163.680705 
L 589.091932 163.109604 
L 590.955652 162.105197 
L 593.751232 160.514325 
L 594.683092 160.106945 
L 595.614952 159.846241 
L 596.546812 159.862085 
L 597.478672 160.110306 
L 599.342392 161.422229 
L 601.206112 163.434644 
L 603.069832 164.888682 
L 604.001692 165.089612 
L 604.933552 164.779455 
L 606.797272 163.502341 
L 608.660992 162.635968 
L 612.388432 162.102796 
L 613.320292 161.473362 
L 615.184012 159.642191 
L 616.115872 159.000513 
L 617.047732 158.680754 
L 617.979592 158.794062 
L 618.911452 159.093416 
L 619.843312 159.677479 
L 621.707032 161.004046 
L 623.570752 161.933795 
L 624.502612 162.260035 
L 625.434472 162.148648 
L 626.366332 161.690615 
L 627.298192 160.956754 
L 628.230052 159.793908 
L 629.161912 158.411168 
L 631.025632 156.384109 
L 631.957492 156.007456 
L 632.889352 156.053067 
L 633.821212 156.318573 
L 637.548652 157.802858 
L 638.480512 158.0566 
L 640.344232 158.190073 
L 641.276092 157.909684 
L 643.139812 156.8359 
L 646.867252 154.88542 
L 648.730972 154.109789 
L 649.662832 153.977516 
L 653.390272 154.057216 
L 656.185852 153.521884 
L 657.117712 153.502439 
L 659.913292 153.888214 
L 660.845152 153.703369 
L 661.777012 153.227092 
L 662.708872 152.12282 
L 663.640732 151.305419 
L 664.572592 149.877547 
L 665.504452 149.112959 
L 666.436312 148.668129 
L 667.368172 148.569945 
L 668.300032 148.763433 
L 670.163752 149.688141 
L 671.095612 149.835297 
L 672.027472 149.788485 
L 672.959332 149.477129 
L 674.823052 148.705819 
L 675.754912 148.472961 
L 676.686772 148.392542 
L 678.550492 148.436712 
L 679.482352 148.236023 
L 683.209792 146.977153 
L 684.141652 147.00284 
L 686.937232 147.421743 
L 687.869092 147.066215 
L 688.800952 146.27402 
L 689.732812 145.201196 
L 692.528392 140.095619 
L 696.255832 134.85705 
L 697.187692 133.910737 
L 698.119552 133.300507 
L 699.051412 133.082773 
L 699.983272 133.161752 
L 700.915132 133.39677 
L 701.846992 134.049011 
L 703.710712 134.821521 
L 703.710712 134.821521 
" clip-path="url(#p6759cb6d5d)" style="fill: none; stroke: #0000bb; stroke-width: 2; stroke-linecap: square"/>
   </g>
   <g id="line2d_168">
    <path d="M 56.804297 504.001745 
L 56.999872 500.660295 
L 58.863592 474.252785 
L 60.727312 453.070375 
L 62.591032 435.33134 
L 64.454752 419.845645 
L 67.250332 399.249207 
L 70.045912 380.588862 
L 73.773352 357.577484 
L 77.500792 336.133144 
L 81.228232 316.041443 
L 84.955672 297.229577 
L 88.683112 279.650337 
L 92.410552 263.247629 
L 96.137992 247.951573 
L 99.865432 233.682567 
L 103.592872 220.35669 
L 107.320312 207.890033 
L 111.047752 196.201579 
L 114.775192 185.214898 
L 118.502632 174.859025 
L 122.230072 165.068853 
L 126.889372 153.537194 
L 131.548672 142.695343 
L 136.207972 132.455778 
L 140.867272 122.745638 
L 145.526572 113.506794 
L 150.185872 104.695982 
L 154.845172 96.284948 
L 159.504472 88.260534 
L 164.163772 80.624584 
L 168.823072 73.393539 
L 173.482372 66.597551 
L 177.209812 61.502077 
L 180.937252 56.738233 
L 184.664692 52.3353 
L 188.392132 48.324225 
L 191.187712 45.591815 
L 193.983292 43.109948 
L 196.778872 40.890307 
L 199.574452 38.943209 
L 202.370032 37.277197 
L 205.165612 35.898651 
L 207.961192 34.81146 
L 210.756772 34.016766 
L 213.552352 33.512789 
L 216.347932 33.294754 
L 219.143512 33.354918 
L 221.939092 33.682701 
L 224.734672 34.26491 
L 227.530252 35.086049 
L 230.325832 36.128698 
L 233.121412 37.373929 
L 236.848852 39.314739 
L 240.576292 41.531289 
L 245.235592 44.615348 
L 250.826752 48.65543 
L 258.281632 54.385939 
L 277.850692 69.607702 
L 285.305572 75.067495 
L 292.760452 80.24298 
L 300.215332 85.126267 
L 307.670212 89.731057 
L 315.125092 94.082848 
L 323.511832 98.71406 
L 332.830432 103.582179 
L 343.080892 108.660729 
L 354.263212 113.934833 
L 366.377392 119.392448 
L 379.423432 125.012954 
L 392.469472 130.381519 
L 404.583652 135.133395 
L 416.697832 139.640241 
L 427.880152 143.559139 
L 438.130612 146.926594 
L 448.381072 150.059226 
L 457.699672 152.687844 
L 467.018272 155.094598 
L 476.336872 157.268367 
L 485.655472 159.199795 
L 494.042212 160.724694 
L 502.428952 162.043221 
L 510.815692 163.152667 
L 519.202432 164.05162 
L 527.589172 164.739912 
L 535.975912 165.218547 
L 544.362652 165.489614 
L 552.749392 165.556196 
L 562.067992 165.395198 
L 571.386592 164.993229 
L 580.705192 164.357866 
L 590.023792 163.497525 
L 599.342392 162.421293 
L 609.592852 160.99956 
L 619.843312 159.341534 
L 630.093772 157.460864 
L 641.276092 155.171537 
L 652.458412 152.651636 
L 664.572592 149.682143 
L 676.686772 146.485012 
L 689.732812 142.811963 
L 703.710712 138.640407 
L 703.710712 138.640407 
" clip-path="url(#p6759cb6d5d)" style="fill: none; stroke: #bb0000; stroke-width: 2; stroke-linecap: square"/>
   </g>
   <g id="patch_3">
    <path d="M 51.408712 462.0888 
L 51.408712 3.6 
" style="fill: none; stroke: #000000; stroke-width: 0.5; stroke-linejoin: miter; stroke-linecap: square"/>
   </g>
   <g id="patch_4">
    <path d="M 703.710712 462.0888 
L 703.710712 3.6 
" style="fill: none; stroke: #000000; stroke-width: 0.5; stroke-linejoin: miter; stroke-linecap: square"/>
   </g>
   <g id="patch_5">
    <path d="M 51.408712 462.0888 
L 703.710712 462.0888 
" style="fill: none; stroke: #000000; stroke-width: 0.5; stroke-linejoin: miter; stroke-linecap: square"/>
   </g>
   <g id="patch_6">
    <path d="M 51.408712 3.6 
L 703.710712 3.6 
" style="fill: none; stroke: #000000; stroke-width: 0.5; stroke-linejoin: miter; stroke-linecap: square"/>
   </g>
   <g id="legend_1">
    <g id="patch_7">
     <path d="M 505.708326 69.230472 
L 693.950712 69.230472 
Q 697.310712 69.230472 697.310712 65.870472 
L 697.310712 17.36 
Q 697.310712 14 693.950712 14 
L 505.708326 14 
Q 502.348326 14 502.348326 17.36 
L 502.348326 65.870472 
Q 502.348326 69.230472 505.708326 69.230472 
z
" style="fill: #4c4c4c; opacity: 0.5; stroke: #4c4c4c; stroke-linejoin: miter"/>
    </g>
    <g id="patch_8">
     <path d="M 503.708326 67.230472 
L 691.950712 67.230472 
Q 695.310712 67.230472 695.310712 63.870472 
L 695.310712 15.36 
Q 695.310712 12 691.950712 12 
L 503.708326 12 
Q 500.348326 12 500.348326 15.36 
L 500.348326 63.870472 
Q 500.348326 67.230472 503.708326 67.230472 
z
" style="fill: #ffffff; opacity: 0.8; stroke: #cccccc; stroke-linejoin: miter"/>
    </g>
    <g id="line2d_169">
     <path d="M 507.068326 24.815432 
L 523.868326 24.815432 
L 540.668326 24.815432 
" style="fill: none; stroke: #0000bb; stroke-width: 2; stroke-linecap: square"/>
    </g>
    <g id="text_19">
     <!-- original data -->
     <g transform="translate(554.108326 30.695432) scale(0.168 -0.168)">
      <defs>
       <path id="URWPalladioL-Roma-67" d="M 3322 2452 
L 3482 2713 
L 3456 2790 
L 2547 2764 
C 2310 2956 2080 3033 1766 3033 
C 1485 3033 1158 2944 896 2790 
C 538 2586 352 2274 352 1885 
C 352 1413 646 1087 1120 1036 
L 614 638 
C 550 540 518 455 518 358 
C 518 179 634 76 941 -13 
L 384 -315 
C 294 -367 205 -604 205 -804 
C 205 -1388 774 -1792 1587 -1792 
C 2554 -1792 3315 -1183 3315 -399 
C 3315 64 3008 384 2560 384 
L 1536 384 
C 1203 384 1050 462 1050 638 
C 1050 723 1101 795 1267 939 
C 1306 972 1318 985 1344 1011 
C 1408 1004 1446 998 1498 998 
C 1773 998 2112 1119 2374 1305 
C 2662 1515 2803 1770 2803 2108 
C 2803 2235 2784 2318 2733 2452 
L 3322 2452 
z
M 1536 2816 
C 1971 2816 2266 2458 2266 1917 
C 2266 1502 1997 1216 1606 1216 
C 1178 1216 890 1547 890 2038 
C 890 2529 1126 2816 1536 2816 
z
M 1837 -64 
C 2560 -64 2810 -212 2810 -630 
C 2810 -1183 2304 -1594 1632 -1594 
C 1075 -1594 691 -1266 691 -791 
C 691 -502 858 -238 1114 -129 
C 1216 -77 1395 -64 1837 -64 
z
" transform="scale(0.015625)"/>
       <path id="URWPalladioL-Roma-6c" d="M 147 4249 
L 506 4249 
C 621 4249 666 4179 666 3987 
L 666 672 
C 666 268 646 224 429 211 
L 134 192 
L 134 0 
C 774 0 774 0 934 0 
C 1094 19 1094 19 1734 0 
L 1734 192 
L 1440 211 
C 1222 224 1203 268 1203 672 
L 1203 4614 
L 1146 4665 
C 864 4557 653 4505 147 4429 
L 147 4249 
z
" transform="scale(0.015625)"/>
       <path id="URWPalladioL-Roma-64" d="M 2637 2803 
C 2278 2956 2099 3008 1875 3008 
C 1702 3008 1549 2969 1389 2886 
L 826 2592 
C 461 2400 224 1934 224 1392 
C 224 881 397 460 710 204 
C 928 19 1229 -64 1645 -64 
C 1773 -64 1920 -39 1952 -13 
L 2662 581 
L 2630 0 
C 2944 -7 3046 0 3123 0 
C 3174 0 3264 0 3398 -7 
C 3443 6 3571 6 3706 0 
L 3706 192 
L 3411 211 
C 3194 224 3174 268 3174 672 
L 3174 4614 
L 3117 4665 
C 2835 4557 2624 4505 2118 4429 
L 2118 4249 
L 2477 4249 
C 2592 4249 2637 4179 2637 3987 
L 2637 2803 
z
M 2637 1424 
C 2637 1009 2624 945 2541 798 
C 2362 498 2048 300 1747 300 
C 1184 300 781 843 781 1602 
C 781 2298 1126 2707 1702 2707 
C 1946 2707 2202 2624 2426 2470 
C 2560 2381 2637 2298 2637 2247 
L 2637 1424 
z
" transform="scale(0.015625)"/>
      </defs>
      <use xlink:href="#URWPalladioL-Roma-6f" transform="scale(0.996264)"/>
      <use xlink:href="#URWPalladioL-Roma-72" transform="translate(54.39558 0) scale(0.996264)"/>
      <use xlink:href="#URWPalladioL-Roma-69" transform="translate(93.747477 0) scale(0.996264)"/>
      <use xlink:href="#URWPalladioL-Roma-67" transform="translate(122.737838 0) scale(0.996264)"/>
      <use xlink:href="#URWPalladioL-Roma-69" transform="translate(178.129515 0) scale(0.996264)"/>
      <use xlink:href="#URWPalladioL-Roma-6e" transform="translate(207.119876 0) scale(0.996264)"/>
      <use xlink:href="#URWPalladioL-Roma-61" transform="translate(265.101937 0) scale(0.996264)"/>
      <use xlink:href="#URWPalladioL-Roma-6c" transform="translate(314.915138 0) scale(0.996264)"/>
      <use xlink:href="#URWPalladioL-Roma-64" transform="translate(368.812099 0) scale(0.996264)"/>
      <use xlink:href="#URWPalladioL-Roma-61" transform="translate(429.68373 0) scale(0.996264)"/>
      <use xlink:href="#URWPalladioL-Roma-74" transform="translate(479.49693 0) scale(0.996264)"/>
      <use xlink:href="#URWPalladioL-Roma-61" transform="translate(511.974018 0) scale(0.996264)"/>
     </g>
    </g>
    <g id="line2d_170">
     <path d="M 507.068326 49.910668 
L 523.868326 49.910668 
L 540.668326 49.910668 
" style="fill: none; stroke: #bb0000; stroke-width: 2; stroke-linecap: square"/>
    </g>
    <g id="text_20">
     <!-- 1-7-5-1 ANN filter -->
     <g transform="translate(554.108326 55.790668) scale(0.168 -0.168)">
      <defs>
       <path id="URWPalladioL-Roma-2d" d="M 1805 1395 
L 1997 1823 
L 1965 1856 
L 282 1856 
L 109 1427 
L 141 1395 
L 1805 1395 
z
" transform="scale(0.015625)"/>
       <path id="URWPalladioL-Roma-41" d="M 2611 4480 
L 2406 4480 
C 2291 4205 2195 3969 2157 3874 
L 1818 3103 
L 678 523 
C 602 338 474 223 333 210 
L 96 191 
L 96 0 
C 691 0 691 0 794 0 
C 877 19 877 19 1568 0 
L 1568 191 
L 1331 210 
C 1107 229 1024 273 1024 375 
C 1024 457 1114 730 1248 1047 
L 1427 1472 
L 3270 1472 
L 3565 742 
C 3674 476 3699 394 3699 337 
C 3699 267 3597 223 3437 210 
L 3136 191 
L 3136 0 
C 3923 0 3923 0 4026 0 
C 4147 19 4147 19 4838 0 
L 4838 191 
L 4621 210 
C 4454 235 4384 343 4160 857 
L 2611 4480 
z
M 1536 1728 
L 2349 3630 
L 3155 1728 
L 1536 1728 
z
" transform="scale(0.015625)"/>
       <path id="URWPalladioL-Roma-4e" d="M 877 4396 
C 518 4403 461 4403 109 4416 
L 109 4223 
L 390 4204 
C 685 4185 717 4128 717 3633 
L 717 782 
C 717 287 685 230 390 211 
L 109 192 
L 109 0 
C 742 0 742 0 851 0 
C 947 19 947 19 1619 0 
L 1619 192 
L 1338 211 
C 1043 230 1011 287 1011 782 
L 1011 3722 
L 4038 -7 
L 4614 -109 
C 4614 -84 4614 -77 4608 -33 
C 4602 38 4595 89 4595 128 
L 4595 3633 
C 4595 4128 4627 4185 4922 4204 
L 5203 4223 
L 5203 4416 
C 4531 4396 4531 4396 4435 4396 
C 4326 4396 4326 4396 3693 4416 
L 3693 4223 
L 3974 4204 
C 4269 4185 4301 4128 4301 3633 
L 4301 642 
L 1222 4416 
L 877 4396 
z
" transform="scale(0.015625)"/>
       <path id="URWPalladioL-Roma-2" d="M 2182 4601 
C 2048 4652 1971 4672 1888 4672 
C 1683 4672 1459 4563 1318 4403 
L 947 3981 
C 762 3770 678 3482 678 3060 
L 678 2792 
L 237 2594 
L 237 2453 
L 678 2479 
L 678 671 
C 678 268 659 223 442 211 
L 147 192 
L 147 0 
C 787 0 787 0 954 0 
C 1107 19 1286 12 1786 0 
L 1786 192 
L 1453 211 
C 1235 223 1216 268 1216 669 
L 1216 2472 
L 1946 2472 
L 1990 2810 
L 1216 2784 
L 1216 3329 
C 1216 4069 1299 4249 1664 4249 
C 1837 4249 1952 4204 2106 4069 
L 2182 4107 
L 2182 4601 
z
M 3226 2963 
L 3168 3008 
C 2886 2867 2547 2778 2170 2733 
L 2170 2555 
L 2406 2555 
C 2662 2555 2688 2510 2688 2090 
L 2688 669 
C 2688 268 2669 223 2451 211 
L 2157 192 
L 2157 0 
C 2797 0 2797 0 2957 0 
C 3117 19 3117 19 3757 0 
L 3757 192 
L 3462 211 
C 3245 224 3226 268 3226 671 
L 3226 2963 
z
M 2989 4416 
C 2797 4416 2630 4249 2630 4057 
C 2630 3871 2797 3705 2982 3705 
C 3168 3705 3341 3871 3341 4057 
C 3341 4236 3168 4416 2989 4416 
z
" transform="scale(0.015625)"/>
      </defs>
      <use xlink:href="#URWPalladioL-Roma-31" transform="scale(0.996264)"/>
      <use xlink:href="#URWPalladioL-Roma-2d" transform="translate(49.8132 0) scale(0.996264)"/>
      <use xlink:href="#URWPalladioL-Roma-37" transform="translate(82.98843 0) scale(0.996264)"/>
      <use xlink:href="#URWPalladioL-Roma-2d" transform="translate(132.801631 0) scale(0.996264)"/>
      <use xlink:href="#URWPalladioL-Roma-35" transform="translate(165.97686 0) scale(0.996264)"/>
      <use xlink:href="#URWPalladioL-Roma-2d" transform="translate(215.790061 0) scale(0.996264)"/>
      <use xlink:href="#URWPalladioL-Roma-31" transform="translate(248.965291 0) scale(0.996264)"/>
      <use xlink:href="#URWPalladioL-Roma-41" transform="translate(323.685091 0) scale(0.996264)"/>
      <use xlink:href="#URWPalladioL-Roma-4e" transform="translate(401.193462 0) scale(0.996264)"/>
      <use xlink:href="#URWPalladioL-Roma-4e" transform="translate(483.982368 0) scale(0.996264)"/>
      <use xlink:href="#URWPalladioL-Roma-2" transform="translate(591.677875 0) scale(0.996264)"/>
      <use xlink:href="#URWPalladioL-Roma-6c" transform="translate(651.951134 0) scale(0.996264)"/>
      <use xlink:href="#URWPalladioL-Roma-74" transform="translate(680.941495 0) scale(0.996264)"/>
      <use xlink:href="#URWPalladioL-Roma-65" transform="translate(713.418583 0) scale(0.996264)"/>
      <use xlink:href="#URWPalladioL-Roma-72" transform="translate(761.138878 0) scale(0.996264)"/>
     </g>
    </g>
   </g>
  </g>
 </g>
 <defs>
  <clipPath id="p6759cb6d5d">
   <rect x="51.408712" y="3.6" width="652.302" height="458.4888"/>
  </clipPath>
 </defs>
</svg>
